<svg xmlns="http://www.w3.org/2000/svg" width="128" height="128" viewBox="0 0 128 128" shape-rendering="crispEdges"><path fill="#2a043b" d="M61 22h3v1h-3zM60 23h1v1h-1zM65 23h1v1h-1zM59 24h1v1h-1zM66 24h1v1h-1zM58 25h1v1h-1zM58 26h1v1h-1zM59 27h1v1h-1zM68 27h1v1h-1zM68 28h1v1h-1zM87 28h2v1h-2zM85 29h1v1h-1zM66 30h1v1h-1zM56 31h1v1h-1zM60 31h1v1h-1zM83 31h2v1h-2zM91 32h1v1h-1zM79 33h1v1h-1zM91 33h1v1h-1zM83 34h1v1h-1zM91 34h1v1h-1zM61 35h1v1h-1zM63 35h1v1h-1zM66 35h1v1h-1zM78 35h1v1h-1zM53 36h1v1h-1zM85 36h3v1h-3zM52 37h2v1h-2zM70 37h2v1h-2zM71 38h2v1h-2zM80 38h1v1h-1zM46 40h1v1h-1zM75 40h1v1h-1zM44 41h1v1h-1zM79 42h1v1h-1zM43 43h1v1h-1zM79 43h1v1h-1zM40 46h2v1h-2zM83 48h1v1h-1zM39 49h1v1h-1zM83 49h1v1h-1zM40 50h1v1h-1zM39 51h1v1h-1zM59 52h1v1h-1zM84 52h1v1h-1zM39 53h2v1h-2zM58 53h1v1h-1zM60 53h3v1h-3zM85 53h1v1h-1zM39 54h1v1h-1zM63 54h1v1h-1zM85 54h1v1h-1zM62 56h3v1h-3zM66 56h1v1h-1zM62 57h1v1h-1zM64 57h3v1h-3zM68 57h1v1h-1zM81 57h1v1h-1zM85 57h1v1h-1zM41 58h1v1h-1zM64 58h1v1h-1zM66 58h3v1h-3zM85 58h1v1h-1zM42 59h1v1h-1zM64 59h1v1h-1zM66 59h3v1h-3zM84 59h1v1h-1zM42 60h1v1h-1zM60 60h1v1h-1zM65 60h3v1h-3zM69 60h1v1h-1zM78 60h3v1h-3zM83 60h1v1h-1zM43 61h1v1h-1zM66 61h4v1h-4zM82 61h2v1h-2zM44 62h1v1h-1zM64 62h6v1h-6zM78 62h1v1h-1zM83 62h1v1h-1zM45 63h1v1h-1zM61 63h1v1h-1zM63 63h2v1h-2zM66 63h3v1h-3zM78 63h1v1h-1zM81 63h1v1h-1zM63 64h1v1h-1zM65 64h3v1h-3zM77 64h1v1h-1zM79 64h1v1h-1zM66 65h4v1h-4zM77 65h1v1h-1zM82 66h1v1h-1zM55 68h1v1h-1zM57 68h1v1h-1zM78 70h1v1h-1zM53 71h1v1h-1zM59 71h1v1h-1zM76 71h1v1h-1zM47 72h1v1h-1zM49 72h1v1h-1zM70 72h1v1h-1zM73 72h1v1h-1zM71 73h1v1h-1zM66 74h1v1h-1zM69 74h1v1h-1zM43 75h1v1h-1zM57 75h1v1h-1zM43 76h1v1h-1zM49 77h1v1h-1zM51 77h1v1h-1zM43 78h1v1h-1zM49 78h1v1h-1zM54 78h2v1h-2zM67 78h1v1h-1zM71 78h1v1h-1zM76 80h1v1h-1zM80 80h2v1h-2zM53 81h2v1h-2zM67 81h1v1h-1zM53 82h1v1h-1zM46 83h1v1h-1zM69 83h1v1h-1zM43 84h1v1h-1zM49 84h1v1h-1zM60 84h1v1h-1zM67 84h1v1h-1zM50 85h2v1h-2zM53 85h1v1h-1zM62 85h1v1h-1zM65 85h1v1h-1zM74 85h1v1h-1zM84 85h1v1h-1zM41 86h2v1h-2zM44 86h1v1h-1zM71 86h1v1h-1zM79 86h1v1h-1zM82 86h2v1h-2zM52 87h1v1h-1zM76 87h1v1h-1zM79 87h1v1h-1zM45 88h1v1h-1zM60 88h1v1h-1zM76 88h1v1h-1zM63 89h1v1h-1zM51 90h1v1h-1zM64 90h1v1h-1zM49 91h1v1h-1zM73 91h1v1h-1zM48 92h2v1h-2zM56 92h1v1h-1zM67 92h1v1h-1zM48 93h1v1h-1zM54 93h2v1h-2zM46 94h1v1h-1zM52 94h2v1h-2zM45 95h1v1h-1zM65 95h1v1h-1zM73 95h1v1h-1zM55 96h1v1h-1zM43 98h1v1h-1zM57 98h1v1h-1zM78 99h1v1h-1zM44 100h2v1h-2zM77 100h1v1h-1zM46 101h1v1h-1zM49 101h2v1h-2zM52 101h1v1h-1zM55 101h1v1h-1zM65 101h1v1h-1zM70 101h1v1h-1zM72 101h2v1h-2zM76 101h1v1h-1z"/><path fill="#270438" d="M64 22h2v1h-2zM67 25h1v1h-1zM58 28h1v1h-1zM85 28h1v1h-1zM89 28h1v1h-1zM61 29h1v1h-1zM66 29h1v1h-1zM84 29h1v1h-1zM86 29h2v1h-2zM57 30h1v1h-1zM62 30h1v1h-1zM64 30h1v1h-1zM84 30h1v1h-1zM90 30h1v1h-1zM81 31h1v1h-1zM91 31h1v1h-1zM56 32h1v1h-1zM81 32h1v1h-1zM59 33h2v1h-2zM78 34h1v1h-1zM84 34h1v1h-1zM55 35h1v1h-1zM84 35h2v1h-2zM90 35h1v1h-1zM60 36h1v1h-1zM68 36h1v1h-1zM70 36h1v1h-1zM81 36h1v1h-1zM88 36h1v1h-1zM55 37h1v1h-1zM80 37h1v1h-1zM50 38h1v1h-1zM73 38h1v1h-1zM46 39h2v1h-2zM76 39h1v1h-1zM79 39h1v1h-1zM45 41h1v1h-1zM43 42h1v1h-1zM80 43h1v1h-1zM42 44h2v1h-2zM80 44h1v1h-1zM41 45h1v1h-1zM82 46h1v1h-1zM40 48h1v1h-1zM82 48h1v1h-1zM83 50h1v1h-1zM84 51h1v1h-1zM40 54h1v1h-1zM57 55h1v1h-1zM83 55h1v1h-1zM85 55h1v1h-1zM41 56h1v1h-1zM67 56h1v1h-1zM40 57h1v1h-1zM58 58h1v1h-1zM60 58h1v1h-1zM63 58h1v1h-1zM80 58h1v1h-1zM59 59h1v1h-1zM59 60h1v1h-1zM59 61h2v1h-2zM70 61h1v1h-1zM79 61h1v1h-1zM63 62h1v1h-1zM79 63h1v1h-1zM80 64h1v1h-1zM82 64h1v1h-1zM64 65h1v1h-1zM79 65h1v1h-1zM49 66h2v1h-2zM55 67h1v1h-1zM81 67h1v1h-1zM73 68h2v1h-2zM79 68h1v1h-1zM54 69h1v1h-1zM51 72h1v1h-1zM56 72h1v1h-1zM67 72h1v1h-1zM72 72h1v1h-1zM47 73h1v1h-1zM57 73h1v1h-1zM70 73h1v1h-1zM44 74h1v1h-1zM62 74h1v1h-1zM69 75h1v1h-1zM52 76h1v1h-1zM57 76h1v1h-1zM68 76h1v1h-1zM42 77h1v1h-1zM63 77h1v1h-1zM69 77h1v1h-1zM42 78h1v1h-1zM52 78h1v1h-1zM42 79h1v1h-1zM61 79h1v1h-1zM72 79h1v1h-1zM40 80h1v1h-1zM67 80h1v1h-1zM73 80h2v1h-2zM77 80h1v1h-1zM79 80h1v1h-1zM60 81h1v1h-1zM65 82h1v1h-1zM67 82h1v1h-1zM45 83h1v1h-1zM53 83h1v1h-1zM55 83h1v1h-1zM80 83h1v1h-1zM83 83h1v1h-1zM54 84h1v1h-1zM79 84h1v1h-1zM81 84h1v1h-1zM84 84h1v1h-1zM43 85h1v1h-1zM58 85h1v1h-1zM68 85h1v1h-1zM81 85h1v1h-1zM47 86h1v1h-1zM70 86h1v1h-1zM44 87h1v1h-1zM71 87h1v1h-1zM46 88h1v1h-1zM64 88h1v1h-1zM61 89h1v1h-1zM73 89h1v1h-1zM60 90h1v1h-1zM65 90h1v1h-1zM59 91h1v1h-1zM69 91h1v1h-1zM57 92h1v1h-1zM72 93h1v1h-1zM47 94h1v1h-1zM66 94h1v1h-1zM71 94h1v1h-1zM53 95h2v1h-2zM64 95h1v1h-1zM44 96h1v1h-1zM56 96h1v1h-1zM76 96h1v1h-1zM43 97h1v1h-1zM77 97h1v1h-1zM63 98h1v1h-1zM77 98h1v1h-1zM43 99h1v1h-1zM78 100h1v1h-1zM77 101h1v1h-1z"/><path fill="#605c82" d="M61 23h1v1h-1zM41 48h1v1h-1zM41 54h1v1h-1zM41 55h1v1h-1zM61 57h1v1h-1zM77 61h1v1h-1zM62 62h1v1h-1zM48 64h1v1h-1zM56 69h1v1h-1zM54 70h4v1h-4zM54 71h5v1h-5zM57 72h3v1h-3zM58 73h4v1h-4zM59 74h3v1h-3zM68 74h1v1h-1zM60 75h8v1h-8zM58 76h2v1h-2zM62 76h6v1h-6zM58 77h3v1h-3zM62 77h1v1h-1zM67 77h1v1h-1zM56 78h5v1h-5zM63 78h1v1h-1zM54 79h7v1h-7zM55 80h6v1h-6zM59 81h1v1h-1zM61 81h2v1h-2zM68 81h1v1h-1zM54 82h2v1h-2zM61 82h3v1h-3zM66 82h1v1h-1zM56 83h10v1h-10zM51 84h1v1h-1zM55 84h2v1h-2zM58 84h1v1h-1zM61 84h4v1h-4zM78 84h1v1h-1zM59 85h1v1h-1zM66 85h1v1h-1zM60 86h6v1h-6zM61 87h4v1h-4zM61 88h3v1h-3zM72 89h1v1h-1zM55 97h1v1h-1zM70 100h7v1h-7z"/><path fill="#a0e69a" d="M62 23h3v1h-3zM62 24h1v1h-1zM65 24h1v1h-1zM62 25h1v1h-1zM66 25h1v1h-1zM61 26h1v1h-1zM63 26h1v1h-1zM65 26h1v1h-1zM63 27h1v1h-1zM67 27h1v1h-1zM85 30h1v1h-1zM86 31h1v1h-1zM90 31h1v1h-1zM90 32h1v1h-1zM87 33h1v1h-1zM57 34h1v1h-1zM87 34h1v1h-1zM79 35h1v1h-1zM61 36h4v1h-4zM66 36h1v1h-1zM60 37h1v1h-1zM62 37h4v1h-4zM64 38h1v1h-1zM70 38h1v1h-1zM79 38h1v1h-1zM52 39h2v1h-2zM60 39h1v1h-1zM64 39h1v1h-1zM72 39h1v1h-1zM52 40h2v1h-2zM56 40h1v1h-1zM59 40h1v1h-1zM64 40h2v1h-2zM74 40h1v1h-1zM53 41h1v1h-1zM57 41h2v1h-2zM74 41h1v1h-1zM49 42h1v1h-1zM55 42h1v1h-1zM57 42h1v1h-1zM66 42h1v1h-1zM53 43h1v1h-1zM76 43h1v1h-1zM78 43h1v1h-1zM52 44h1v1h-1zM57 44h1v1h-1zM67 44h1v1h-1zM73 44h1v1h-1zM77 44h1v1h-1zM49 45h2v1h-2zM54 45h1v1h-1zM60 45h1v1h-1zM74 45h1v1h-1zM76 45h1v1h-1zM78 45h2v1h-2zM52 46h1v1h-1zM56 46h1v1h-1zM62 46h2v1h-2zM67 46h1v1h-1zM73 46h1v1h-1zM77 46h2v1h-2zM81 46h1v1h-1zM51 47h2v1h-2zM62 47h2v1h-2zM65 47h1v1h-1zM73 47h2v1h-2zM50 48h1v1h-1zM52 48h1v1h-1zM58 48h1v1h-1zM65 48h1v1h-1zM74 48h1v1h-1zM79 48h1v1h-1zM81 48h1v1h-1zM62 49h1v1h-1zM74 49h1v1h-1zM79 49h2v1h-2zM52 50h1v1h-1zM54 50h1v1h-1zM56 50h2v1h-2zM61 50h1v1h-1zM73 50h2v1h-2zM78 50h1v1h-1zM80 50h2v1h-2zM52 51h2v1h-2zM56 51h1v1h-1zM58 51h1v1h-1zM60 51h3v1h-3zM68 51h2v1h-2zM74 51h1v1h-1zM79 51h3v1h-3zM63 52h1v1h-1zM69 52h1v1h-1zM79 52h1v1h-1zM66 53h1v1h-1zM77 53h1v1h-1zM82 53h1v1h-1zM54 54h1v1h-1zM67 54h2v1h-2zM72 54h1v1h-1zM77 54h1v1h-1zM54 55h1v1h-1zM67 55h1v1h-1zM77 55h1v1h-1zM80 55h1v1h-1zM84 55h1v1h-1zM54 56h1v1h-1zM68 56h1v1h-1zM77 56h1v1h-1zM79 56h1v1h-1zM54 57h1v1h-1zM57 57h1v1h-1zM72 57h1v1h-1zM54 58h2v1h-2zM70 58h1v1h-1zM77 58h2v1h-2zM54 59h1v1h-1zM75 59h3v1h-3zM56 60h2v1h-2zM74 60h4v1h-4zM56 61h1v1h-1zM75 61h2v1h-2zM59 62h1v1h-1zM74 62h2v1h-2zM58 63h1v1h-1zM75 63h1v1h-1zM61 64h1v1h-1zM72 64h1v1h-1zM63 65h1v1h-1zM71 65h1v1h-1zM73 65h1v1h-1zM80 65h2v1h-2zM62 66h1v1h-1zM64 66h1v1h-1zM66 66h4v1h-4zM73 66h1v1h-1zM75 66h1v1h-1zM64 67h6v1h-6zM74 67h3v1h-3zM64 68h1v1h-1zM66 68h5v1h-5zM75 68h2v1h-2zM78 68h1v1h-1zM66 69h3v1h-3zM70 69h3v1h-3zM69 70h3v1h-3zM74 70h1v1h-1zM71 71h2v1h-2zM48 73h4v1h-4zM49 74h1v1h-1zM51 74h1v1h-1zM54 74h1v1h-1zM45 77h1v1h-1zM45 78h3v1h-3zM43 79h5v1h-5zM46 80h1v1h-1zM71 80h2v1h-2zM42 81h1v1h-1zM49 81h1v1h-1zM75 81h2v1h-2zM78 81h1v1h-1zM80 81h1v1h-1zM41 82h1v1h-1zM48 82h1v1h-1zM73 82h1v1h-1zM77 82h1v1h-1zM80 82h2v1h-2zM82 83h1v1h-1zM78 86h1v1h-1zM58 87h1v1h-1zM70 87h1v1h-1zM57 88h1v1h-1zM59 88h1v1h-1zM69 88h1v1h-1zM57 89h1v1h-1zM70 89h1v1h-1zM55 90h2v1h-2zM71 90h1v1h-1zM49 94h1v1h-1zM49 95h1v1h-1zM51 95h1v1h-1zM47 96h3v1h-3zM54 96h1v1h-1zM46 97h4v1h-4zM68 97h1v1h-1zM72 97h1v1h-1zM48 98h1v1h-1zM51 98h1v1h-1zM70 98h2v1h-2zM73 98h1v1h-1zM76 98h1v1h-1zM52 99h1v1h-1zM54 99h1v1h-1zM71 99h5v1h-5zM52 100h3v1h-3z"/><path fill="#34154a" d="M60 24h1v1h-1zM62 29h1v1h-1zM55 34h1v1h-1zM79 34h1v1h-1zM82 34h1v1h-1zM90 34h1v1h-1zM51 38h1v1h-1zM77 38h1v1h-1zM46 41h1v1h-1zM57 51h1v1h-1zM63 53h1v1h-1zM83 54h1v1h-1zM81 56h1v1h-1zM80 57h1v1h-1zM42 58h1v1h-1zM79 58h1v1h-1zM58 59h1v1h-1zM45 62h1v1h-1zM60 62h1v1h-1zM76 63h1v1h-1zM76 66h3v1h-3zM71 67h1v1h-1zM80 67h1v1h-1zM71 68h1v1h-1zM58 69h1v1h-1zM52 70h1v1h-1zM58 70h1v1h-1zM60 70h1v1h-1zM76 70h1v1h-1zM60 72h1v1h-1zM56 73h1v1h-1zM58 74h1v1h-1zM67 74h1v1h-1zM58 75h1v1h-1zM68 75h1v1h-1zM61 76h1v1h-1zM69 76h1v1h-1zM56 77h1v1h-1zM56 81h3v1h-3zM48 83h1v1h-1zM65 84h1v1h-1zM73 84h1v1h-1zM80 84h1v1h-1zM49 85h1v1h-1zM59 87h1v1h-1zM72 87h1v1h-1zM50 91h1v1h-1zM66 91h1v1h-1zM45 94h1v1h-1zM76 97h1v1h-1zM65 100h5v1h-5z"/><path fill="#52a786" d="M61 24h1v1h-1zM60 25h1v1h-1zM59 26h2v1h-2zM60 27h3v1h-3zM61 28h3v1h-3zM59 29h2v1h-2zM63 29h3v1h-3zM82 32h3v1h-3zM83 33h2v1h-2zM85 34h2v1h-2zM56 35h1v1h-1zM86 35h3v1h-3zM56 36h3v1h-3zM56 37h4v1h-4zM56 38h4v1h-4zM50 39h1v1h-1zM54 39h3v1h-3zM73 39h2v1h-2zM77 39h1v1h-1zM48 40h2v1h-2zM54 40h2v1h-2zM77 40h2v1h-2zM47 41h3v1h-3zM77 41h2v1h-2zM45 42h4v1h-4zM77 42h1v1h-1zM44 43h5v1h-5zM44 44h5v1h-5zM43 45h6v1h-6zM43 46h7v1h-7zM57 46h4v1h-4zM42 47h8v1h-8zM57 47h5v1h-5zM42 48h8v1h-8zM56 48h2v1h-2zM41 49h10v1h-10zM82 49h1v1h-1zM41 50h1v1h-1zM43 50h9v1h-9zM55 50h1v1h-1zM82 50h1v1h-1zM41 51h1v1h-1zM43 51h9v1h-9zM54 51h1v1h-1zM67 51h1v1h-1zM82 51h1v1h-1zM41 52h1v1h-1zM44 52h9v1h-9zM54 52h1v1h-1zM68 52h1v1h-1zM81 52h1v1h-1zM41 53h1v1h-1zM45 53h9v1h-9zM69 53h1v1h-1zM80 53h2v1h-2zM45 54h9v1h-9zM69 54h2v1h-2zM79 54h1v1h-1zM46 55h8v1h-8zM70 55h1v1h-1zM78 55h2v1h-2zM48 56h6v1h-6zM71 56h1v1h-1zM48 57h6v1h-6zM71 57h1v1h-1zM49 58h5v1h-5zM71 58h1v1h-1zM50 59h4v1h-4zM52 60h3v1h-3zM53 61h3v1h-3zM54 62h2v1h-2zM55 63h1v1h-1zM56 64h2v1h-2zM57 65h3v1h-3zM58 66h3v1h-3zM59 67h4v1h-4zM60 68h4v1h-4zM62 69h4v1h-4zM64 70h4v1h-4zM65 71h6v1h-6zM54 72h2v1h-2zM55 73h1v1h-1zM48 74h1v1h-1zM55 74h2v1h-2zM54 75h3v1h-3zM44 76h1v1h-1zM50 76h2v1h-2zM55 76h2v1h-2zM44 77h1v1h-1zM54 77h2v1h-2zM44 78h1v1h-1zM69 78h1v1h-1zM68 79h3v1h-3zM68 80h3v1h-3zM43 81h1v1h-1zM46 81h2v1h-2zM69 81h2v1h-2zM40 82h1v1h-1zM43 82h1v1h-1zM45 82h3v1h-3zM70 82h2v1h-2zM78 82h2v1h-2zM40 83h2v1h-2zM43 83h1v1h-1zM49 83h1v1h-1zM73 83h2v1h-2zM78 83h1v1h-1zM41 84h2v1h-2zM44 84h1v1h-1zM50 84h1v1h-1zM75 84h1v1h-1zM82 84h1v1h-1zM42 85h1v1h-1zM44 85h2v1h-2zM55 85h3v1h-3zM75 85h2v1h-2zM82 85h1v1h-1zM45 86h2v1h-2zM54 86h2v1h-2zM67 86h1v1h-1zM77 86h1v1h-1zM45 87h1v1h-1zM53 87h2v1h-2zM66 87h2v1h-2zM77 87h1v1h-1zM53 88h1v1h-1zM66 88h2v1h-2zM53 89h1v1h-1zM65 89h4v1h-4zM52 90h2v1h-2zM68 90h3v1h-3zM52 91h5v1h-5zM70 91h2v1h-2zM50 92h3v1h-3zM54 92h1v1h-1zM68 92h4v1h-4zM49 93h4v1h-4zM68 93h3v1h-3zM51 94h1v1h-1zM67 94h3v1h-3zM46 95h1v1h-1zM66 95h3v1h-3zM45 96h1v1h-1zM65 96h3v1h-3zM45 97h1v1h-1zM65 97h3v1h-3zM44 98h4v1h-4zM64 98h5v1h-5zM44 99h8v1h-8zM64 99h6v1h-6zM46 100h6v1h-6z"/><path fill="#cff0ba" d="M63 24h2v1h-2zM63 25h3v1h-3zM87 30h3v1h-3zM87 31h3v1h-3zM88 32h2v1h-2zM65 38h5v1h-5zM66 39h6v1h-6zM67 40h7v1h-7zM69 41h5v1h-5zM71 42h4v1h-4zM72 43h4v1h-4zM74 44h2v1h-2zM75 45h1v1h-1zM75 46h2v1h-2zM75 47h3v1h-3zM76 48h2v1h-2zM59 54h2v1h-2zM58 55h4v1h-4zM58 56h4v1h-4zM59 57h2v1h-2zM82 57h1v1h-1zM81 58h2v1h-2zM61 59h3v1h-3zM81 59h2v1h-2zM61 60h3v1h-3zM81 60h2v1h-2zM61 61h3v1h-3zM81 61h1v1h-1zM80 62h2v1h-2zM80 63h1v1h-1zM65 78h2v1h-2zM65 79h2v1h-2zM56 88h1v1h-1zM55 89h2v1h-2zM71 89h1v1h-1zM51 96h2v1h-2zM51 97h3v1h-3zM73 97h2v1h-2zM52 98h2v1h-2z"/><path fill="#2c043f" d="M59 25h1v1h-1zM67 26h1v1h-1zM67 29h1v1h-1zM89 29h1v1h-1zM61 30h1v1h-1zM80 32h1v1h-1zM56 33h1v1h-1zM56 34h1v1h-1zM82 35h1v1h-1zM54 36h2v1h-2zM59 36h1v1h-1zM67 36h1v1h-1zM69 36h1v1h-1zM77 36h1v1h-1zM89 36h1v1h-1zM51 37h1v1h-1zM77 37h1v1h-1zM81 37h1v1h-1zM55 38h1v1h-1zM47 40h1v1h-1zM79 40h1v1h-1zM44 42h1v1h-1zM82 47h1v1h-1zM57 52h1v1h-1zM60 52h1v1h-1zM57 54h2v1h-2zM62 54h1v1h-1zM65 54h1v1h-1zM66 55h1v1h-1zM57 56h1v1h-1zM82 56h2v1h-2zM85 56h1v1h-1zM61 58h1v1h-1zM60 59h1v1h-1zM69 59h1v1h-1zM80 59h1v1h-1zM43 60h1v1h-1zM44 61h1v1h-1zM70 62h1v1h-1zM77 62h1v1h-1zM79 62h1v1h-1zM46 63h1v1h-1zM46 64h1v1h-1zM68 64h1v1h-1zM50 65h2v1h-2zM65 65h1v1h-1zM70 65h1v1h-1zM78 65h1v1h-1zM52 66h1v1h-1zM54 68h1v1h-1zM80 68h1v1h-1zM55 69h1v1h-1zM57 69h1v1h-1zM73 69h1v1h-1zM78 69h1v1h-1zM53 70h1v1h-1zM59 70h1v1h-1zM77 70h1v1h-1zM51 71h1v1h-1zM60 71h1v1h-1zM77 71h1v1h-1zM61 72h1v1h-1zM65 72h2v1h-2zM68 72h1v1h-1zM71 72h1v1h-1zM74 72h1v1h-1zM46 73h1v1h-1zM66 73h1v1h-1zM68 73h2v1h-2zM45 74h1v1h-1zM57 74h1v1h-1zM65 74h1v1h-1zM59 75h1v1h-1zM53 76h1v1h-1zM60 76h1v1h-1zM52 77h1v1h-1zM68 77h1v1h-1zM48 78h1v1h-1zM53 78h1v1h-1zM61 78h1v1h-1zM68 78h1v1h-1zM41 79h1v1h-1zM48 79h1v1h-1zM67 79h1v1h-1zM71 79h1v1h-1zM73 79h1v1h-1zM78 79h1v1h-1zM53 80h2v1h-2zM61 80h1v1h-1zM75 80h1v1h-1zM40 81h1v1h-1zM50 81h1v1h-1zM55 81h1v1h-1zM63 81h1v1h-1zM39 82h1v1h-1zM56 82h5v1h-5zM64 82h1v1h-1zM68 82h1v1h-1zM39 83h1v1h-1zM42 83h1v1h-1zM47 83h1v1h-1zM67 83h1v1h-1zM70 83h1v1h-1zM72 83h1v1h-1zM40 84h1v1h-1zM59 84h1v1h-1zM74 84h1v1h-1zM41 85h1v1h-1zM47 85h1v1h-1zM54 85h1v1h-1zM60 85h1v1h-1zM63 85h2v1h-2zM67 85h1v1h-1zM43 86h1v1h-1zM53 86h1v1h-1zM59 86h1v1h-1zM66 86h1v1h-1zM75 86h1v1h-1zM47 87h1v1h-1zM60 87h1v1h-1zM65 87h1v1h-1zM72 88h1v1h-1zM78 88h1v1h-1zM52 89h1v1h-1zM60 89h1v1h-1zM64 89h1v1h-1zM59 90h1v1h-1zM66 90h1v1h-1zM73 90h1v1h-1zM57 91h2v1h-2zM68 91h1v1h-1zM55 92h1v1h-1zM72 92h1v1h-1zM48 94h1v1h-1zM74 95h1v1h-1zM75 96h1v1h-1zM44 97h1v1h-1zM56 97h1v1h-1zM63 97h1v1h-1zM56 98h1v1h-1zM77 99h1v1h-1zM47 101h1v1h-1zM66 101h4v1h-4zM71 101h1v1h-1zM74 101h2v1h-2z"/><path fill="#9fe599" d="M61 25h1v1h-1zM62 26h1v1h-1zM64 26h1v1h-1zM66 26h1v1h-1zM64 27h3v1h-3zM64 28h3v1h-3zM58 30h1v1h-1zM86 30h1v1h-1zM58 31h2v1h-2zM85 31h1v1h-1zM57 32h2v1h-2zM85 32h3v1h-3zM57 33h2v1h-2zM81 33h2v1h-2zM85 33h2v1h-2zM88 33h3v1h-3zM58 34h1v1h-1zM80 34h2v1h-2zM88 34h2v1h-2zM57 35h2v1h-2zM80 35h1v1h-1zM65 36h1v1h-1zM78 36h2v1h-2zM61 37h1v1h-1zM66 37h3v1h-3zM78 37h2v1h-2zM52 38h2v1h-2zM60 38h4v1h-4zM78 38h1v1h-1zM51 39h1v1h-1zM59 39h1v1h-1zM61 39h3v1h-3zM65 39h1v1h-1zM50 40h2v1h-2zM57 40h2v1h-2zM60 40h4v1h-4zM66 40h1v1h-1zM50 41h3v1h-3zM54 41h3v1h-3zM59 41h10v1h-10zM75 41h1v1h-1zM50 42h5v1h-5zM56 42h1v1h-1zM58 42h8v1h-8zM67 42h4v1h-4zM76 42h1v1h-1zM49 43h4v1h-4zM54 43h18v1h-18zM77 43h1v1h-1zM49 44h3v1h-3zM53 44h4v1h-4zM58 44h9v1h-9zM68 44h5v1h-5zM76 44h1v1h-1zM78 44h1v1h-1zM51 45h3v1h-3zM55 45h5v1h-5zM61 45h13v1h-13zM77 45h1v1h-1zM50 46h2v1h-2zM53 46h3v1h-3zM61 46h1v1h-1zM64 46h3v1h-3zM68 46h5v1h-5zM74 46h1v1h-1zM79 46h2v1h-2zM50 47h1v1h-1zM53 47h4v1h-4zM64 47h1v1h-1zM66 47h7v1h-7zM78 47h4v1h-4zM51 48h1v1h-1zM53 48h3v1h-3zM59 48h6v1h-6zM66 48h8v1h-8zM75 48h1v1h-1zM78 48h1v1h-1zM80 48h1v1h-1zM51 49h4v1h-4zM57 49h5v1h-5zM63 49h11v1h-11zM75 49h4v1h-4zM81 49h1v1h-1zM53 50h1v1h-1zM58 50h3v1h-3zM62 50h11v1h-11zM75 50h3v1h-3zM79 50h1v1h-1zM55 51h1v1h-1zM59 51h1v1h-1zM63 51h4v1h-4zM70 51h4v1h-4zM75 51h4v1h-4zM53 52h1v1h-1zM55 52h2v1h-2zM62 52h1v1h-1zM64 52h4v1h-4zM70 52h9v1h-9zM80 52h1v1h-1zM82 52h2v1h-2zM54 53h3v1h-3zM65 53h1v1h-1zM67 53h2v1h-2zM71 53h6v1h-6zM78 53h2v1h-2zM83 53h1v1h-1zM55 54h2v1h-2zM66 54h1v1h-1zM71 54h1v1h-1zM73 54h4v1h-4zM78 54h1v1h-1zM81 54h2v1h-2zM84 54h1v1h-1zM55 55h2v1h-2zM68 55h2v1h-2zM72 55h5v1h-5zM81 55h1v1h-1zM55 56h2v1h-2zM69 56h2v1h-2zM72 56h5v1h-5zM80 56h1v1h-1zM55 57h2v1h-2zM69 57h2v1h-2zM73 57h7v1h-7zM84 57h1v1h-1zM56 58h2v1h-2zM69 58h1v1h-1zM72 58h5v1h-5zM55 59h3v1h-3zM70 59h5v1h-5zM55 60h1v1h-1zM58 60h1v1h-1zM71 60h3v1h-3zM57 61h2v1h-2zM71 61h4v1h-4zM56 62h3v1h-3zM71 62h3v1h-3zM76 62h1v1h-1zM56 63h2v1h-2zM59 63h2v1h-2zM71 63h4v1h-4zM58 64h3v1h-3zM71 64h1v1h-1zM73 64h3v1h-3zM60 65h3v1h-3zM72 65h1v1h-1zM74 65h2v1h-2zM61 66h1v1h-1zM63 66h1v1h-1zM65 66h1v1h-1zM70 66h3v1h-3zM74 66h1v1h-1zM79 66h2v1h-2zM63 67h1v1h-1zM70 67h1v1h-1zM73 67h1v1h-1zM77 67h3v1h-3zM65 68h1v1h-1zM77 68h1v1h-1zM69 69h1v1h-1zM74 69h4v1h-4zM68 70h1v1h-1zM72 70h2v1h-2zM75 70h1v1h-1zM73 71h2v1h-2zM52 73h3v1h-3zM46 74h2v1h-2zM50 74h1v1h-1zM52 74h2v1h-2zM45 75h4v1h-4zM45 76h4v1h-4zM46 77h2v1h-2zM42 80h4v1h-4zM47 80h2v1h-2zM41 81h1v1h-1zM44 81h2v1h-2zM48 81h1v1h-1zM71 81h3v1h-3zM77 81h1v1h-1zM79 81h1v1h-1zM44 82h1v1h-1zM49 82h2v1h-2zM72 82h1v1h-1zM74 82h3v1h-3zM44 83h1v1h-1zM50 83h1v1h-1zM75 83h2v1h-2zM81 83h1v1h-1zM45 84h1v1h-1zM76 84h1v1h-1zM77 85h1v1h-1zM56 86h2v1h-2zM68 86h1v1h-1zM55 87h3v1h-3zM68 87h2v1h-2zM55 88h1v1h-1zM58 88h1v1h-1zM68 88h1v1h-1zM70 88h2v1h-2zM54 89h1v1h-1zM58 89h1v1h-1zM54 90h1v1h-1zM57 90h1v1h-1zM72 90h1v1h-1zM47 95h2v1h-2zM50 95h1v1h-1zM52 95h1v1h-1zM46 96h1v1h-1zM50 96h1v1h-1zM53 96h1v1h-1zM68 96h7v1h-7zM50 97h1v1h-1zM54 97h1v1h-1zM69 97h3v1h-3zM49 98h2v1h-2zM54 98h2v1h-2zM69 98h1v1h-1zM72 98h1v1h-1zM74 98h2v1h-2zM53 99h1v1h-1zM55 99h2v1h-2zM76 99h1v1h-1z"/><path fill="#2b063e" d="M59 28h1v1h-1zM86 28h1v1h-1zM58 29h1v1h-1zM63 30h1v1h-1zM65 30h1v1h-1zM83 30h1v1h-1zM57 31h1v1h-1zM82 31h1v1h-1zM60 32h1v1h-1zM80 33h1v1h-1zM59 34h1v1h-1zM59 35h2v1h-2zM62 35h1v1h-1zM64 35h2v1h-2zM67 35h3v1h-3zM71 36h1v1h-1zM72 37h2v1h-2zM48 38h2v1h-2zM74 38h1v1h-1zM76 38h1v1h-1zM75 39h1v1h-1zM45 40h1v1h-1zM76 40h1v1h-1zM79 41h1v1h-1zM81 44h1v1h-1zM81 45h1v1h-1zM40 47h2v1h-2zM39 48h1v1h-1zM40 49h1v1h-1zM39 50h1v1h-1zM40 51h1v1h-1zM83 51h1v1h-1zM39 52h2v1h-2zM58 52h1v1h-1zM85 52h1v1h-1zM57 53h1v1h-1zM59 53h1v1h-1zM61 54h1v1h-1zM64 54h1v1h-1zM40 55h1v1h-1zM62 55h4v1h-4zM40 56h1v1h-1zM65 56h1v1h-1zM41 57h1v1h-1zM63 57h1v1h-1zM67 57h1v1h-1zM59 58h1v1h-1zM65 58h1v1h-1zM84 58h1v1h-1zM65 59h1v1h-1zM78 59h2v1h-2zM64 60h1v1h-1zM68 60h1v1h-1zM64 61h2v1h-2zM78 61h1v1h-1zM43 62h1v1h-1zM61 62h1v1h-1zM82 62h1v1h-1zM62 63h1v1h-1zM65 63h1v1h-1zM69 63h2v1h-2zM77 63h1v1h-1zM82 63h1v1h-1zM47 64h1v1h-1zM64 64h1v1h-1zM69 64h2v1h-2zM76 64h1v1h-1zM78 64h1v1h-1zM48 65h2v1h-2zM76 65h1v1h-1zM82 65h1v1h-1zM51 66h1v1h-1zM53 66h1v1h-1zM54 67h1v1h-1zM56 68h1v1h-1zM72 68h1v1h-1zM53 69h1v1h-1zM79 69h1v1h-1zM52 71h1v1h-1zM61 71h1v1h-1zM75 71h1v1h-1zM48 72h1v1h-1zM50 72h1v1h-1zM69 72h1v1h-1zM75 72h1v1h-1zM67 73h1v1h-1zM72 73h2v1h-2zM63 74h2v1h-2zM44 75h1v1h-1zM49 76h1v1h-1zM50 77h1v1h-1zM53 77h1v1h-1zM61 77h1v1h-1zM66 77h1v1h-1zM70 77h1v1h-1zM70 78h1v1h-1zM77 79h1v1h-1zM79 79h1v1h-1zM41 80h1v1h-1zM49 80h1v1h-1zM78 80h1v1h-1zM66 81h1v1h-1zM74 81h1v1h-1zM81 81h1v1h-1zM51 82h1v1h-1zM69 82h1v1h-1zM51 83h1v1h-1zM52 84h2v1h-2zM57 84h1v1h-1zM66 84h1v1h-1zM46 85h1v1h-1zM61 85h1v1h-1zM69 85h2v1h-2zM79 85h1v1h-1zM52 86h1v1h-1zM76 86h1v1h-1zM52 88h1v1h-1zM77 88h1v1h-1zM62 89h1v1h-1zM77 89h1v1h-1zM50 90h1v1h-1zM67 90h1v1h-1zM67 91h1v1h-1zM66 93h1v1h-1zM71 93h1v1h-1zM70 94h1v1h-1zM72 95h1v1h-1zM64 96h1v1h-1zM57 99h1v1h-1zM63 99h1v1h-1zM55 100h2v1h-2zM64 100h1v1h-1zM48 101h1v1h-1zM51 101h1v1h-1zM53 101h2v1h-2z"/><path fill="#4a9278" d="M60 28h1v1h-1zM60 30h1v1h-1zM54 37h1v1h-1zM54 38h1v1h-1zM48 39h2v1h-2zM76 41h1v1h-1zM78 42h1v1h-1zM42 50h1v1h-1zM42 51h1v1h-1zM42 52h2v1h-2zM42 53h3v1h-3zM42 54h3v1h-3zM42 55h4v1h-4zM82 55h1v1h-1zM42 56h6v1h-6zM42 57h6v1h-6zM43 58h6v1h-6zM43 59h7v1h-7zM44 60h8v1h-8zM45 61h8v1h-8zM46 62h8v1h-8zM47 63h8v1h-8zM49 64h7v1h-7zM52 65h5v1h-5zM54 66h4v1h-4zM56 67h3v1h-3zM58 68h2v1h-2zM59 69h3v1h-3zM61 70h3v1h-3zM62 71h3v1h-3zM62 72h3v1h-3zM62 73h4v1h-4zM54 76h1v1h-1zM42 82h1v1h-1zM77 83h1v1h-1zM77 84h1v1h-1zM83 85h1v1h-1zM46 87h1v1h-1zM65 88h1v1h-1zM59 89h1v1h-1zM51 91h1v1h-1zM72 91h1v1h-1zM53 92h1v1h-1z"/><path fill="#250033" d="M67 28h1v1h-1zM88 29h1v1h-1zM81 35h1v1h-1zM89 35h1v1h-1zM42 45h1v1h-1zM42 46h1v1h-1zM58 57h1v1h-1zM83 57h1v1h-1zM62 58h1v1h-1zM83 58h1v1h-1zM83 59h1v1h-1zM70 60h1v1h-1zM62 64h1v1h-1zM81 66h1v1h-1zM49 75h1v1h-1zM43 77h1v1h-1zM57 77h1v1h-1zM62 78h1v1h-1zM49 79h1v1h-1zM53 79h1v1h-1zM62 79h1v1h-1zM62 80h1v1h-1zM82 82h1v1h-1zM54 83h1v1h-1zM66 83h1v1h-1zM71 83h1v1h-1zM79 83h1v1h-1zM46 84h1v1h-1zM78 85h1v1h-1zM69 86h1v1h-1zM75 87h1v1h-1zM53 93h1v1h-1zM67 93h1v1h-1zM64 97h1v1h-1z"/><path fill="#87d392" d="M59 30h1v1h-1zM59 32h1v1h-1zM80 36h1v1h-1zM69 37h1v1h-1zM57 39h2v1h-2zM78 39h1v1h-1zM79 44h1v1h-1zM80 45h1v1h-1zM55 49h2v1h-2zM61 52h1v1h-1zM64 53h1v1h-1zM70 53h1v1h-1zM80 54h1v1h-1zM71 55h1v1h-1zM78 56h1v1h-1zM84 56h1v1h-1zM72 67h1v1h-1zM53 72h1v1h-1zM50 75h4v1h-4zM48 77h1v1h-1zM83 84h1v1h-1zM58 86h1v1h-1zM78 87h1v1h-1zM54 88h1v1h-1zM69 89h1v1h-1zM58 90h1v1h-1zM70 99h1v1h-1z"/><path fill="#a4e095" d="M75 42h1v1h-1zM84 53h1v1h-1zM80 61h1v1h-1zM52 72h1v1h-1zM64 77h2v1h-2zM64 78h1v1h-1zM63 79h2v1h-2zM63 80h4v1h-4zM64 81h2v1h-2zM50 94h1v1h-1zM69 95h3v1h-3zM75 97h1v1h-1z"/><path fill="#000000" d="M81 64h1v1h-1z"/></svg>
