<svg xmlns="http://www.w3.org/2000/svg" width="128" height="128" viewBox="0 0 128 128" shape-rendering="crispEdges"><path fill="#2a043b" d="M60 34h3v1h-3zM59 35h1v1h-1zM64 35h1v1h-1zM58 36h1v1h-1zM57 37h1v1h-1zM57 38h1v1h-1zM57 39h1v1h-1zM84 40h2v1h-2zM82 41h1v1h-1zM64 42h1v1h-1zM54 43h1v1h-1zM58 43h1v1h-1zM80 43h2v1h-2zM88 44h1v1h-1zM76 45h1v1h-1zM88 45h1v1h-1zM80 46h1v1h-1zM88 46h1v1h-1zM59 47h1v1h-1zM61 47h1v1h-1zM64 47h1v1h-1zM75 47h1v1h-1zM51 48h1v1h-1zM82 48h3v1h-3zM50 49h2v1h-2zM68 49h2v1h-2zM69 50h2v1h-2zM77 50h1v1h-1zM44 52h1v1h-1zM73 52h1v1h-1zM42 53h1v1h-1zM41 54h1v1h-1zM76 54h1v1h-1zM39 57h1v1h-1zM80 59h1v1h-1zM38 60h1v1h-1zM39 61h1v1h-1zM38 62h1v1h-1zM38 64h2v1h-2zM38 65h1v1h-1zM40 69h1v1h-1zM41 70h1v1h-1zM41 71h1v1h-1zM42 72h1v1h-1zM43 73h1v1h-1zM44 74h1v1h-1zM54 79h1v1h-1zM56 79h1v1h-1zM76 81h1v1h-1zM52 82h1v1h-1zM58 82h1v1h-1zM74 82h1v1h-1zM46 83h1v1h-1zM48 83h1v1h-1zM68 83h1v1h-1zM71 83h1v1h-1zM69 84h1v1h-1zM65 85h1v1h-1zM68 85h1v1h-1zM42 86h1v1h-1zM56 86h1v1h-1zM42 87h1v1h-1zM48 88h1v1h-1zM50 88h1v1h-1zM42 89h1v1h-1zM48 89h1v1h-1zM53 89h2v1h-2zM66 89h1v1h-1zM70 89h1v1h-1zM74 91h1v1h-1zM78 91h2v1h-2zM52 92h2v1h-2zM66 92h1v1h-1zM45 93h1v1h-1zM68 93h1v1h-1zM41 94h1v1h-1zM47 94h1v1h-1zM58 94h1v1h-1zM65 94h1v1h-1zM48 95h2v1h-2zM51 95h1v1h-1zM60 95h1v1h-1zM63 95h1v1h-1zM72 95h1v1h-1zM81 95h1v1h-1zM39 96h2v1h-2zM42 96h1v1h-1zM69 96h1v1h-1zM77 96h1v1h-1zM79 96h2v1h-2zM50 97h1v1h-1zM74 97h1v1h-1zM77 97h1v1h-1zM43 98h1v1h-1zM58 98h1v1h-1zM74 98h1v1h-1zM61 99h1v1h-1zM49 100h1v1h-1zM62 100h1v1h-1zM47 101h1v1h-1zM71 101h1v1h-1zM46 102h2v1h-2zM54 102h1v1h-1zM65 102h1v1h-1zM46 103h1v1h-1zM52 103h2v1h-2zM44 104h1v1h-1zM50 104h2v1h-2zM63 105h1v1h-1zM71 105h1v1h-1zM53 106h1v1h-1zM42 108h1v1h-1zM55 108h1v1h-1zM76 109h1v1h-1zM43 110h2v1h-2zM75 110h1v1h-1zM47 111h2v1h-2zM50 111h1v1h-1zM53 111h1v1h-1zM63 111h1v1h-1zM68 111h1v1h-1zM70 111h2v1h-2zM74 111h1v1h-1z"/><path fill="#270438" d="M63 34h2v1h-2zM65 37h1v1h-1zM56 40h1v1h-1zM82 40h1v1h-1zM86 40h1v1h-1zM59 41h1v1h-1zM64 41h1v1h-1zM81 41h1v1h-1zM83 41h2v1h-2zM55 42h1v1h-1zM60 42h1v1h-1zM62 42h1v1h-1zM81 42h1v1h-1zM87 42h1v1h-1zM78 43h1v1h-1zM88 43h1v1h-1zM54 44h1v1h-1zM78 44h1v1h-1zM57 45h2v1h-2zM75 46h1v1h-1zM81 46h1v1h-1zM53 47h1v1h-1zM81 47h2v1h-2zM87 47h1v1h-1zM58 48h1v1h-1zM66 48h1v1h-1zM68 48h1v1h-1zM78 48h1v1h-1zM85 48h1v1h-1zM53 49h1v1h-1zM77 49h1v1h-1zM48 50h1v1h-1zM71 50h1v1h-1zM44 51h2v1h-2zM73 51h1v1h-1zM76 51h1v1h-1zM43 53h1v1h-1zM77 54h1v1h-1zM40 55h2v1h-2zM77 55h1v1h-1zM39 56h1v1h-1zM79 57h1v1h-1zM39 59h1v1h-1zM81 61h1v1h-1zM39 65h1v1h-1zM40 67h1v1h-1zM39 68h1v1h-1zM48 77h2v1h-2zM54 78h1v1h-1zM71 79h2v1h-2zM53 80h1v1h-1zM50 83h1v1h-1zM55 83h1v1h-1zM66 83h1v1h-1zM70 83h1v1h-1zM46 84h1v1h-1zM56 84h1v1h-1zM68 84h1v1h-1zM43 85h1v1h-1zM61 85h1v1h-1zM68 86h1v1h-1zM51 87h1v1h-1zM56 87h1v1h-1zM67 87h1v1h-1zM41 88h1v1h-1zM62 88h1v1h-1zM68 88h1v1h-1zM41 89h1v1h-1zM51 89h1v1h-1zM41 90h1v1h-1zM60 90h1v1h-1zM71 90h1v1h-1zM39 91h1v1h-1zM66 91h1v1h-1zM72 91h2v1h-2zM75 91h1v1h-1zM77 91h1v1h-1zM59 92h1v1h-1zM44 93h1v1h-1zM52 93h1v1h-1zM54 93h1v1h-1zM78 93h1v1h-1zM81 93h1v1h-1zM52 94h1v1h-1zM76 94h1v1h-1zM78 94h1v1h-1zM81 94h1v1h-1zM41 95h1v1h-1zM56 95h1v1h-1zM66 95h1v1h-1zM78 95h1v1h-1zM45 96h1v1h-1zM68 96h1v1h-1zM42 97h1v1h-1zM69 97h1v1h-1zM44 98h1v1h-1zM62 98h1v1h-1zM59 99h1v1h-1zM71 99h1v1h-1zM58 100h1v1h-1zM63 100h1v1h-1zM57 101h1v1h-1zM67 101h1v1h-1zM55 102h1v1h-1zM70 103h1v1h-1zM45 104h1v1h-1zM64 104h1v1h-1zM69 104h1v1h-1zM51 105h2v1h-2zM62 105h1v1h-1zM43 106h1v1h-1zM54 106h1v1h-1zM74 106h1v1h-1zM42 107h1v1h-1zM75 107h1v1h-1zM61 108h1v1h-1zM75 108h1v1h-1zM42 109h1v1h-1zM76 110h1v1h-1zM75 111h1v1h-1z"/><path fill="#605c82" d="M60 35h1v1h-1zM40 59h1v1h-1zM40 65h1v1h-1zM40 66h1v1h-1zM47 75h1v1h-1zM55 80h1v1h-1zM53 81h4v1h-4zM53 82h5v1h-5zM56 83h3v1h-3zM57 84h4v1h-4zM58 85h3v1h-3zM67 85h1v1h-1zM59 86h8v1h-8zM57 87h2v1h-2zM61 87h6v1h-6zM57 88h3v1h-3zM61 88h1v1h-1zM66 88h1v1h-1zM55 89h5v1h-5zM62 89h1v1h-1zM53 90h7v1h-7zM54 91h6v1h-6zM58 92h1v1h-1zM60 92h2v1h-2zM67 92h1v1h-1zM55 93h10v1h-10zM49 94h1v1h-1zM53 94h2v1h-2zM56 94h1v1h-1zM59 94h4v1h-4zM57 95h1v1h-1zM64 95h1v1h-1zM58 96h6v1h-6zM59 97h4v1h-4zM59 98h3v1h-3zM70 99h1v1h-1zM53 107h1v1h-1zM68 110h7v1h-7z"/><path fill="#a0e69a" d="M61 35h3v1h-3zM61 36h1v1h-1zM64 36h1v1h-1zM61 37h1v1h-1zM60 38h1v1h-1zM62 38h1v1h-1zM64 38h1v1h-1zM61 39h1v1h-1zM65 39h1v1h-1zM82 42h1v1h-1zM83 43h1v1h-1zM87 43h1v1h-1zM87 44h1v1h-1zM84 45h1v1h-1zM55 46h1v1h-1zM84 46h1v1h-1zM76 47h1v1h-1zM59 48h4v1h-4zM64 48h1v1h-1zM58 49h1v1h-1zM60 49h4v1h-4zM62 50h1v1h-1zM68 50h1v1h-1zM76 50h1v1h-1zM50 51h2v1h-2zM58 51h1v1h-1zM62 51h1v1h-1zM70 51h1v1h-1zM50 52h2v1h-2zM54 52h1v1h-1zM57 52h1v1h-1zM62 52h2v1h-2zM72 52h1v1h-1zM51 53h1v1h-1zM55 53h2v1h-2zM72 53h1v1h-1zM51 54h1v1h-1zM74 54h2v1h-2zM50 55h1v1h-1zM55 55h1v1h-1zM65 55h1v1h-1zM71 55h1v1h-1zM75 55h1v1h-1zM47 56h2v1h-2zM52 56h1v1h-1zM58 56h1v1h-1zM72 56h1v1h-1zM74 56h1v1h-1zM76 56h1v1h-1zM50 57h1v1h-1zM54 57h1v1h-1zM60 57h2v1h-2zM65 57h1v1h-1zM71 57h1v1h-1zM75 57h2v1h-2zM78 57h1v1h-1zM49 58h2v1h-2zM60 58h2v1h-2zM63 58h1v1h-1zM71 58h2v1h-2zM48 59h1v1h-1zM50 59h1v1h-1zM56 59h1v1h-1zM63 59h1v1h-1zM72 59h1v1h-1zM77 59h1v1h-1zM79 59h1v1h-1zM60 60h1v1h-1zM72 60h1v1h-1zM77 60h2v1h-2zM59 61h1v1h-1zM71 61h2v1h-2zM76 61h1v1h-1zM78 61h2v1h-2zM59 62h2v1h-2zM66 62h2v1h-2zM72 62h1v1h-1zM77 62h3v1h-3zM61 63h1v1h-1zM67 63h1v1h-1zM77 63h1v1h-1zM64 64h1v1h-1zM75 64h1v1h-1zM70 65h1v1h-1zM70 68h1v1h-1zM73 70h2v1h-2zM72 71h3v1h-3zM73 72h2v1h-2zM72 73h2v1h-2zM73 74h1v1h-1zM70 75h1v1h-1zM69 76h1v1h-1zM71 76h1v1h-1zM60 77h1v1h-1zM71 77h1v1h-1zM73 77h1v1h-1zM62 78h2v1h-2zM72 78h2v1h-2zM62 79h1v1h-1zM64 79h2v1h-2zM73 79h1v1h-1zM64 80h3v1h-3zM69 80h2v1h-2zM67 81h3v1h-3zM72 81h1v1h-1zM69 82h2v1h-2zM47 84h4v1h-4zM48 85h1v1h-1zM50 85h1v1h-1zM53 85h1v1h-1zM44 88h1v1h-1zM44 89h3v1h-3zM42 90h5v1h-5zM45 91h1v1h-1zM70 91h2v1h-2zM41 92h1v1h-1zM48 92h1v1h-1zM74 92h1v1h-1zM76 92h1v1h-1zM78 92h1v1h-1zM80 93h1v1h-1zM76 96h1v1h-1zM56 97h1v1h-1zM68 97h1v1h-1zM55 98h1v1h-1zM57 98h1v1h-1zM67 98h1v1h-1zM55 99h1v1h-1zM68 99h1v1h-1zM53 100h2v1h-2zM69 100h1v1h-1zM47 104h1v1h-1zM47 105h1v1h-1zM49 105h1v1h-1zM45 106h3v1h-3zM52 106h1v1h-1zM44 107h4v1h-4zM66 107h1v1h-1zM70 107h1v1h-1zM46 108h1v1h-1zM49 108h1v1h-1zM68 108h2v1h-2zM71 108h1v1h-1zM74 108h1v1h-1zM50 109h1v1h-1zM52 109h1v1h-1zM69 109h5v1h-5zM50 110h3v1h-3z"/><path fill="#34154a" d="M59 36h1v1h-1zM60 41h1v1h-1zM53 46h1v1h-1zM76 46h1v1h-1zM79 46h1v1h-1zM87 46h1v1h-1zM49 50h1v1h-1zM74 50h1v1h-1zM44 53h1v1h-1zM41 69h1v1h-1zM44 73h1v1h-1zM69 78h1v1h-1zM69 79h1v1h-1zM57 80h1v1h-1zM51 81h1v1h-1zM57 81h1v1h-1zM59 81h1v1h-1zM74 81h1v1h-1zM59 83h1v1h-1zM55 84h1v1h-1zM57 85h1v1h-1zM66 85h1v1h-1zM57 86h1v1h-1zM67 86h1v1h-1zM60 87h1v1h-1zM68 87h1v1h-1zM55 88h1v1h-1zM55 92h3v1h-3zM47 93h1v1h-1zM63 94h1v1h-1zM71 94h1v1h-1zM77 94h1v1h-1zM47 95h1v1h-1zM57 97h1v1h-1zM70 97h1v1h-1zM48 101h1v1h-1zM64 101h1v1h-1zM43 104h1v1h-1zM74 107h1v1h-1zM63 110h5v1h-5z"/><path fill="#52a786" d="M60 36h1v1h-1zM59 37h1v1h-1zM58 38h2v1h-2zM58 39h3v1h-3zM59 40h3v1h-3zM57 41h2v1h-2zM61 41h3v1h-3zM79 44h3v1h-3zM80 45h2v1h-2zM82 46h2v1h-2zM54 47h1v1h-1zM83 47h3v1h-3zM54 48h3v1h-3zM54 49h4v1h-4zM54 50h4v1h-4zM48 51h1v1h-1zM52 51h3v1h-3zM71 51h2v1h-2zM74 51h1v1h-1zM46 52h2v1h-2zM52 52h2v1h-2zM74 52h2v1h-2zM45 53h3v1h-3zM74 53h2v1h-2zM42 54h5v1h-5zM42 55h5v1h-5zM41 56h6v1h-6zM41 57h7v1h-7zM55 57h4v1h-4zM40 58h8v1h-8zM55 58h5v1h-5zM41 59h7v1h-7zM49 59h1v1h-1zM54 59h2v1h-2zM40 60h13v1h-13zM80 60h1v1h-1zM84 60h1v1h-1zM40 61h1v1h-1zM42 61h14v1h-14zM80 61h1v1h-1zM82 61h3v1h-3zM40 62h1v1h-1zM42 62h17v1h-17zM65 62h1v1h-1zM80 62h5v1h-5zM40 63h1v1h-1zM43 63h18v1h-18zM66 63h1v1h-1zM79 63h6v1h-6zM40 64h1v1h-1zM44 64h20v1h-20zM67 64h1v1h-1zM77 64h8v1h-8zM44 65h25v1h-25zM75 65h11v1h-11zM45 66h25v1h-25zM75 66h11v1h-11zM47 67h4v1h-4zM52 67h18v1h-18zM75 67h11v1h-11zM47 68h4v1h-4zM54 68h16v1h-16zM75 68h11v1h-11zM48 69h6v1h-6zM57 69h13v1h-13zM75 69h9v1h-9zM85 69h1v1h-1zM49 70h7v1h-7zM59 70h11v1h-11zM75 70h7v1h-7zM85 70h1v1h-1zM51 71h8v1h-8zM62 71h8v1h-8zM75 71h5v1h-5zM83 71h3v1h-3zM52 72h9v1h-9zM64 72h6v1h-6zM75 72h4v1h-4zM81 72h5v1h-5zM53 73h11v1h-11zM67 73h2v1h-2zM74 73h3v1h-3zM80 73h6v1h-6zM54 74h1v1h-1zM56 74h10v1h-10zM67 74h2v1h-2zM74 74h1v1h-1zM78 74h8v1h-8zM55 75h2v1h-2zM58 75h11v1h-11zM74 75h1v1h-1zM76 75h10v1h-10zM56 76h3v1h-3zM60 76h9v1h-9zM74 76h12v1h-12zM57 77h3v1h-3zM62 77h7v1h-7zM74 77h12v1h-12zM58 78h3v1h-3zM64 78h5v1h-5zM74 78h8v1h-8zM59 79h3v1h-3zM66 79h3v1h-3zM74 79h5v1h-5zM61 80h3v1h-3zM68 80h1v1h-1zM74 80h1v1h-1zM63 81h3v1h-3zM64 82h5v1h-5zM53 83h2v1h-2zM54 84h1v1h-1zM47 85h1v1h-1zM54 85h2v1h-2zM53 86h3v1h-3zM43 87h1v1h-1zM49 87h2v1h-2zM54 87h2v1h-2zM43 88h1v1h-1zM53 88h2v1h-2zM43 89h1v1h-1zM68 89h1v1h-1zM67 90h3v1h-3zM67 91h3v1h-3zM42 92h1v1h-1zM45 92h2v1h-2zM68 92h2v1h-2zM39 93h2v1h-2zM42 93h1v1h-1zM48 93h1v1h-1zM72 93h2v1h-2zM76 93h1v1h-1zM39 94h2v1h-2zM42 94h1v1h-1zM48 94h1v1h-1zM73 94h1v1h-1zM79 94h1v1h-1zM40 95h1v1h-1zM42 95h2v1h-2zM53 95h3v1h-3zM73 95h2v1h-2zM79 95h1v1h-1zM43 96h2v1h-2zM52 96h2v1h-2zM65 96h1v1h-1zM75 96h1v1h-1zM43 97h1v1h-1zM51 97h2v1h-2zM64 97h2v1h-2zM75 97h1v1h-1zM51 98h1v1h-1zM64 98h2v1h-2zM51 99h1v1h-1zM63 99h4v1h-4zM50 100h2v1h-2zM66 100h3v1h-3zM50 101h5v1h-5zM68 101h2v1h-2zM48 102h3v1h-3zM52 102h1v1h-1zM66 102h4v1h-4zM47 103h4v1h-4zM66 103h3v1h-3zM49 104h1v1h-1zM65 104h3v1h-3zM44 105h1v1h-1zM64 105h3v1h-3zM63 106h3v1h-3zM63 107h3v1h-3zM43 108h3v1h-3zM62 108h5v1h-5zM43 109h7v1h-7zM62 109h6v1h-6zM45 110h5v1h-5z"/><path fill="#cff0ba" d="M62 36h2v1h-2zM62 37h3v1h-3zM84 42h3v1h-3zM84 43h3v1h-3zM85 44h2v1h-2zM63 50h5v1h-5zM64 51h6v1h-6zM65 52h7v1h-7zM67 53h5v1h-5zM70 54h4v1h-4zM72 55h2v1h-2zM73 56h1v1h-1zM73 57h2v1h-2zM73 58h3v1h-3zM74 59h2v1h-2zM64 89h2v1h-2zM64 90h2v1h-2zM54 98h1v1h-1zM53 99h2v1h-2zM69 99h1v1h-1zM49 106h2v1h-2zM49 107h3v1h-3zM71 107h2v1h-2zM50 108h2v1h-2z"/><path fill="#2c043f" d="M58 37h1v1h-1zM65 38h1v1h-1zM65 41h1v1h-1zM86 41h1v1h-1zM59 42h1v1h-1zM77 44h1v1h-1zM54 45h1v1h-1zM54 46h1v1h-1zM79 47h1v1h-1zM52 48h2v1h-2zM57 48h1v1h-1zM65 48h1v1h-1zM67 48h1v1h-1zM74 48h1v1h-1zM86 48h1v1h-1zM49 49h1v1h-1zM74 49h1v1h-1zM78 49h1v1h-1zM53 50h1v1h-1zM45 52h1v1h-1zM76 52h1v1h-1zM79 58h1v1h-1zM42 71h1v1h-1zM43 72h1v1h-1zM45 74h1v1h-1zM45 75h1v1h-1zM49 76h2v1h-2zM51 77h1v1h-1zM53 79h1v1h-1zM54 80h1v1h-1zM56 80h1v1h-1zM71 80h1v1h-1zM76 80h1v1h-1zM52 81h1v1h-1zM58 81h1v1h-1zM75 81h1v1h-1zM50 82h1v1h-1zM59 82h1v1h-1zM75 82h1v1h-1zM60 83h1v1h-1zM64 83h2v1h-2zM69 83h1v1h-1zM72 83h1v1h-1zM45 84h1v1h-1zM65 84h1v1h-1zM67 84h1v1h-1zM44 85h1v1h-1zM56 85h1v1h-1zM64 85h1v1h-1zM58 86h1v1h-1zM52 87h1v1h-1zM59 87h1v1h-1zM51 88h1v1h-1zM67 88h1v1h-1zM47 89h1v1h-1zM52 89h1v1h-1zM60 89h1v1h-1zM67 89h1v1h-1zM40 90h1v1h-1zM47 90h1v1h-1zM66 90h1v1h-1zM70 90h1v1h-1zM72 90h1v1h-1zM76 90h1v1h-1zM52 91h2v1h-2zM60 91h1v1h-1zM39 92h1v1h-1zM49 92h1v1h-1zM54 92h1v1h-1zM62 92h1v1h-1zM38 93h1v1h-1zM41 93h1v1h-1zM46 93h1v1h-1zM66 93h1v1h-1zM69 93h1v1h-1zM71 93h1v1h-1zM38 94h1v1h-1zM57 94h1v1h-1zM72 94h1v1h-1zM39 95h1v1h-1zM45 95h1v1h-1zM52 95h1v1h-1zM58 95h1v1h-1zM61 95h2v1h-2zM65 95h1v1h-1zM41 96h1v1h-1zM51 96h1v1h-1zM57 96h1v1h-1zM64 96h1v1h-1zM73 96h1v1h-1zM45 97h1v1h-1zM58 97h1v1h-1zM63 97h1v1h-1zM70 98h1v1h-1zM76 98h1v1h-1zM50 99h1v1h-1zM58 99h1v1h-1zM62 99h1v1h-1zM57 100h1v1h-1zM64 100h1v1h-1zM71 100h1v1h-1zM55 101h2v1h-2zM66 101h1v1h-1zM53 102h1v1h-1zM70 102h1v1h-1zM46 104h1v1h-1zM72 105h1v1h-1zM73 106h1v1h-1zM43 107h1v1h-1zM54 107h1v1h-1zM61 107h1v1h-1zM54 108h1v1h-1zM75 109h1v1h-1zM45 111h1v1h-1zM64 111h4v1h-4zM69 111h1v1h-1zM72 111h2v1h-2z"/><path fill="#9fe599" d="M60 37h1v1h-1zM61 38h1v1h-1zM63 38h1v1h-1zM62 39h3v1h-3zM62 40h3v1h-3zM56 42h1v1h-1zM83 42h1v1h-1zM56 43h2v1h-2zM82 43h1v1h-1zM55 44h2v1h-2zM82 44h3v1h-3zM55 45h2v1h-2zM78 45h2v1h-2zM82 45h2v1h-2zM85 45h3v1h-3zM56 46h1v1h-1zM77 46h2v1h-2zM85 46h2v1h-2zM55 47h2v1h-2zM77 47h1v1h-1zM63 48h1v1h-1zM75 48h2v1h-2zM59 49h1v1h-1zM64 49h3v1h-3zM75 49h2v1h-2zM50 50h2v1h-2zM58 50h4v1h-4zM75 50h1v1h-1zM49 51h1v1h-1zM57 51h1v1h-1zM59 51h3v1h-3zM63 51h1v1h-1zM48 52h2v1h-2zM55 52h2v1h-2zM58 52h4v1h-4zM64 52h1v1h-1zM48 53h3v1h-3zM52 53h3v1h-3zM57 53h10v1h-10zM73 53h1v1h-1zM47 54h4v1h-4zM52 54h18v1h-18zM47 55h3v1h-3zM51 55h4v1h-4zM56 55h9v1h-9zM66 55h5v1h-5zM74 55h1v1h-1zM49 56h3v1h-3zM53 56h5v1h-5zM59 56h13v1h-13zM75 56h1v1h-1zM48 57h2v1h-2zM51 57h3v1h-3zM59 57h1v1h-1zM62 57h3v1h-3zM66 57h5v1h-5zM72 57h1v1h-1zM77 57h1v1h-1zM48 58h1v1h-1zM51 58h4v1h-4zM62 58h1v1h-1zM64 58h7v1h-7zM76 58h3v1h-3zM51 59h3v1h-3zM57 59h6v1h-6zM64 59h8v1h-8zM73 59h1v1h-1zM76 59h1v1h-1zM78 59h1v1h-1zM55 60h5v1h-5zM61 60h11v1h-11zM73 60h4v1h-4zM79 60h1v1h-1zM56 61h3v1h-3zM60 61h11v1h-11zM73 61h3v1h-3zM77 61h1v1h-1zM61 62h4v1h-4zM68 62h4v1h-4zM73 62h4v1h-4zM62 63h4v1h-4zM68 63h9v1h-9zM78 63h1v1h-1zM65 64h2v1h-2zM69 64h6v1h-6zM76 64h1v1h-1zM69 65h1v1h-1zM71 65h4v1h-4zM70 66h5v1h-5zM70 67h5v1h-5zM71 68h4v1h-4zM70 69h5v1h-5zM70 70h3v1h-3zM70 71h2v1h-2zM70 72h3v1h-3zM69 73h3v1h-3zM55 74h1v1h-1zM69 74h4v1h-4zM57 75h1v1h-1zM69 75h1v1h-1zM71 75h3v1h-3zM59 76h1v1h-1zM70 76h1v1h-1zM72 76h2v1h-2zM61 77h1v1h-1zM69 77h2v1h-2zM72 77h1v1h-1zM61 78h1v1h-1zM71 78h1v1h-1zM63 79h1v1h-1zM67 80h1v1h-1zM72 80h2v1h-2zM75 80h1v1h-1zM66 81h1v1h-1zM70 81h2v1h-2zM73 81h1v1h-1zM71 82h2v1h-2zM51 84h3v1h-3zM45 85h2v1h-2zM49 85h1v1h-1zM51 85h2v1h-2zM44 86h4v1h-4zM44 87h4v1h-4zM45 88h2v1h-2zM41 91h4v1h-4zM46 91h2v1h-2zM40 92h1v1h-1zM43 92h2v1h-2zM47 92h1v1h-1zM70 92h3v1h-3zM75 92h1v1h-1zM77 92h1v1h-1zM43 93h1v1h-1zM49 93h1v1h-1zM74 93h2v1h-2zM79 93h1v1h-1zM43 94h1v1h-1zM74 94h1v1h-1zM75 95h1v1h-1zM54 96h2v1h-2zM66 96h1v1h-1zM53 97h3v1h-3zM66 97h2v1h-2zM53 98h1v1h-1zM56 98h1v1h-1zM66 98h1v1h-1zM68 98h2v1h-2zM52 99h1v1h-1zM56 99h1v1h-1zM52 100h1v1h-1zM55 100h1v1h-1zM70 100h1v1h-1zM45 105h2v1h-2zM48 105h1v1h-1zM50 105h1v1h-1zM44 106h1v1h-1zM48 106h1v1h-1zM51 106h1v1h-1zM66 106h7v1h-7zM48 107h1v1h-1zM52 107h1v1h-1zM67 107h3v1h-3zM47 108h2v1h-2zM52 108h2v1h-2zM67 108h1v1h-1zM70 108h1v1h-1zM72 108h2v1h-2zM51 109h1v1h-1zM53 109h2v1h-2zM74 109h1v1h-1z"/><path fill="#2b063e" d="M57 40h1v1h-1zM83 40h1v1h-1zM56 41h1v1h-1zM61 42h1v1h-1zM63 42h1v1h-1zM80 42h1v1h-1zM55 43h1v1h-1zM79 43h1v1h-1zM58 44h1v1h-1zM77 45h1v1h-1zM57 46h1v1h-1zM57 47h2v1h-2zM60 47h1v1h-1zM62 47h2v1h-2zM65 47h3v1h-3zM69 48h1v1h-1zM70 49h1v1h-1zM46 50h2v1h-2zM73 50h1v1h-1zM43 52h1v1h-1zM76 53h1v1h-1zM78 55h1v1h-1zM78 56h1v1h-1zM39 58h1v1h-1zM38 59h1v1h-1zM39 60h1v1h-1zM38 61h1v1h-1zM39 62h1v1h-1zM38 63h2v1h-2zM39 66h1v1h-1zM39 67h1v1h-1zM40 68h1v1h-1zM42 73h1v1h-1zM46 75h1v1h-1zM47 76h2v1h-2zM50 77h1v1h-1zM52 77h1v1h-1zM53 78h1v1h-1zM55 79h1v1h-1zM70 79h1v1h-1zM52 80h1v1h-1zM77 80h1v1h-1zM51 82h1v1h-1zM60 82h1v1h-1zM73 82h1v1h-1zM47 83h1v1h-1zM49 83h1v1h-1zM67 83h1v1h-1zM73 83h1v1h-1zM66 84h1v1h-1zM70 84h2v1h-2zM62 85h2v1h-2zM43 86h1v1h-1zM48 87h1v1h-1zM49 88h1v1h-1zM52 88h1v1h-1zM60 88h1v1h-1zM65 88h1v1h-1zM69 88h1v1h-1zM69 89h1v1h-1zM75 90h1v1h-1zM77 90h1v1h-1zM40 91h1v1h-1zM48 91h1v1h-1zM76 91h1v1h-1zM65 92h1v1h-1zM73 92h1v1h-1zM79 92h1v1h-1zM50 93h1v1h-1zM50 94h2v1h-2zM55 94h1v1h-1zM64 94h1v1h-1zM44 95h1v1h-1zM59 95h1v1h-1zM67 95h2v1h-2zM50 96h1v1h-1zM74 96h1v1h-1zM50 98h1v1h-1zM75 98h1v1h-1zM60 99h1v1h-1zM75 99h1v1h-1zM48 100h1v1h-1zM65 100h1v1h-1zM65 101h1v1h-1zM64 103h1v1h-1zM69 103h1v1h-1zM68 104h1v1h-1zM70 105h1v1h-1zM62 106h1v1h-1zM55 109h1v1h-1zM61 109h1v1h-1zM53 110h2v1h-2zM62 110h1v1h-1zM46 111h1v1h-1zM49 111h1v1h-1zM51 111h2v1h-2z"/><path fill="#4a9278" d="M58 40h1v1h-1zM58 42h1v1h-1zM52 49h1v1h-1zM52 50h1v1h-1zM46 51h2v1h-2zM41 61h1v1h-1zM41 62h1v1h-1zM41 63h2v1h-2zM41 64h3v1h-3zM41 65h3v1h-3zM41 66h4v1h-4zM41 67h6v1h-6zM41 68h6v1h-6zM42 69h6v1h-6zM42 70h7v1h-7zM43 71h8v1h-8zM44 72h8v1h-8zM45 73h8v1h-8zM46 74h8v1h-8zM48 75h7v1h-7zM51 76h5v1h-5zM53 77h4v1h-4zM55 78h3v1h-3zM57 79h2v1h-2zM58 80h3v1h-3zM60 81h3v1h-3zM61 82h3v1h-3zM61 83h3v1h-3zM61 84h4v1h-4zM53 87h1v1h-1zM75 94h1v1h-1zM80 95h1v1h-1zM44 97h1v1h-1zM63 98h1v1h-1zM57 99h1v1h-1zM49 101h1v1h-1zM70 101h1v1h-1zM51 102h1v1h-1z"/><path fill="#250033" d="M65 40h1v1h-1zM85 41h1v1h-1zM78 47h1v1h-1zM86 47h1v1h-1zM40 56h1v1h-1zM40 57h1v1h-1zM48 86h1v1h-1zM42 88h1v1h-1zM56 88h1v1h-1zM61 89h1v1h-1zM48 90h1v1h-1zM52 90h1v1h-1zM61 90h1v1h-1zM61 91h1v1h-1zM53 93h1v1h-1zM65 93h1v1h-1zM70 93h1v1h-1zM77 93h1v1h-1zM44 94h1v1h-1zM76 95h1v1h-1zM67 96h1v1h-1zM73 97h1v1h-1zM51 103h1v1h-1zM65 103h1v1h-1zM62 107h1v1h-1z"/><path fill="#87d392" d="M57 42h1v1h-1zM57 44h1v1h-1zM77 48h1v1h-1zM67 49h1v1h-1zM55 51h2v1h-2zM75 51h1v1h-1zM76 55h1v1h-1zM77 56h1v1h-1zM53 60h2v1h-2zM68 64h1v1h-1zM70 78h1v1h-1zM52 83h1v1h-1zM49 86h4v1h-4zM47 88h1v1h-1zM80 94h1v1h-1zM56 96h1v1h-1zM76 97h1v1h-1zM52 98h1v1h-1zM67 99h1v1h-1zM56 100h1v1h-1zM68 109h1v1h-1z"/><path fill="#251033" d="M51 67h1v1h-1zM51 68h3v1h-3zM54 69h3v1h-3zM84 69h1v1h-1zM56 70h3v1h-3zM82 70h3v1h-3zM59 71h3v1h-3zM80 71h3v1h-3zM61 72h3v1h-3zM79 72h2v1h-2zM64 73h3v1h-3zM77 73h3v1h-3zM66 74h1v1h-1zM75 74h3v1h-3zM75 75h1v1h-1z"/><path fill="#a4e095" d="M51 83h1v1h-1zM63 88h2v1h-2zM63 89h1v1h-1zM62 90h2v1h-2zM62 91h4v1h-4zM63 92h2v1h-2zM48 104h1v1h-1zM67 105h3v1h-3zM73 107h1v1h-1z"/></svg>
