<svg xmlns="http://www.w3.org/2000/svg" width="144" height="128" viewBox="0 0 144 128" shape-rendering="crispEdges"><path fill="#3e1328" d="M54 20h1v1h-1zM54 37h1v1h-1zM50 49h1v1h-1zM50 50h1v1h-1zM50 52h1v1h-1zM67 52h1v1h-1zM94 52h1v1h-1zM47 53h2v1h-2zM47 54h1v1h-1zM61 54h1v1h-1zM47 55h1v1h-1zM47 56h2v1h-2zM79 59h1v1h-1zM45 60h1v1h-1zM67 60h1v1h-1zM43 63h1v1h-1zM43 64h1v1h-1zM32 70h2v1h-2zM100 70h1v1h-1zM32 71h1v1h-1zM77 71h1v1h-1zM28 72h3v1h-3zM77 72h1v1h-1zM107 72h1v1h-1zM109 72h2v1h-2zM35 73h1v1h-1zM39 73h1v1h-1zM115 73h1v1h-1zM25 74h1v1h-1zM43 74h1v1h-1zM27 75h2v1h-2zM48 75h1v1h-1zM64 75h5v1h-5zM70 75h1v1h-1zM72 75h1v1h-1zM93 75h1v1h-1zM101 75h1v1h-1zM101 77h1v1h-1zM44 79h1v1h-1zM105 79h1v1h-1zM120 79h1v1h-1zM88 80h1v1h-1zM45 81h1v1h-1zM43 82h1v1h-1zM45 82h1v1h-1zM81 82h3v1h-3zM112 82h1v1h-1zM120 82h1v1h-1zM21 84h1v1h-1zM33 85h1v1h-1zM21 86h1v1h-1zM31 86h1v1h-1zM122 86h1v1h-1zM22 87h1v1h-1zM106 87h1v1h-1zM31 88h1v1h-1zM35 88h1v1h-1zM106 88h1v1h-1zM120 88h1v1h-1zM29 89h1v1h-1zM117 89h1v1h-1zM23 90h2v1h-2zM27 90h1v1h-1zM35 91h2v1h-2zM104 94h1v1h-1zM71 95h2v1h-2zM72 97h1v1h-1zM48 98h1v1h-1zM63 98h1v1h-1zM65 98h1v1h-1zM74 98h1v1h-1zM53 99h1v1h-1zM73 99h1v1h-1zM59 100h1v1h-1zM65 101h1v1h-1zM73 106h1v1h-1zM89 107h1v1h-1zM97 107h1v1h-1zM73 108h1v1h-1zM96 108h1v1h-1zM61 109h1v1h-1zM86 109h2v1h-2zM87 110h1v1h-1zM83 112h1v1h-1zM81 116h1v1h-1z"/><path fill="#3e1328" d="M55 20h1v1h-1zM85 39h1v1h-1zM88 41h1v1h-1zM88 42h1v1h-1zM88 43h1v1h-1zM52 46h1v1h-1zM52 47h1v1h-1zM63 51h9v1h-9zM92 51h2v1h-2zM96 51h1v1h-1zM92 52h1v1h-1zM100 52h2v1h-2zM79 58h1v1h-1zM85 58h2v1h-2zM85 59h2v1h-2zM70 60h1v1h-1zM77 60h1v1h-1zM85 60h2v1h-2zM76 61h1v1h-1zM85 61h2v1h-2zM94 61h1v1h-1zM72 62h1v1h-1zM85 62h2v1h-2zM108 62h1v1h-1zM85 63h2v1h-2zM104 63h1v1h-1zM108 63h1v1h-1zM85 64h2v1h-2zM94 64h1v1h-1zM103 64h2v1h-2zM108 64h1v1h-1zM85 65h2v1h-2zM103 65h1v1h-1zM108 65h1v1h-1zM85 66h2v1h-2zM103 66h2v1h-2zM108 66h1v1h-1zM68 67h1v1h-1zM85 67h2v1h-2zM94 67h2v1h-2zM103 67h1v1h-1zM108 67h1v1h-1zM69 68h1v1h-1zM78 68h1v1h-1zM85 68h2v1h-2zM108 68h1v1h-1zM85 69h2v1h-2zM108 69h1v1h-1zM108 70h1v1h-1zM41 72h2v1h-2zM112 72h1v1h-1zM44 73h2v1h-2zM112 73h1v1h-1zM26 75h1v1h-1zM116 75h1v1h-1zM23 76h1v1h-1zM63 76h1v1h-1zM66 76h4v1h-4zM93 76h2v1h-2zM97 76h4v1h-4zM23 77h1v1h-1zM35 79h2v1h-2zM106 79h1v1h-1zM31 81h3v1h-3zM103 83h1v1h-1zM32 85h1v1h-1zM106 85h1v1h-1zM20 86h1v1h-1zM32 86h2v1h-2zM118 89h1v1h-1zM120 89h1v1h-1zM26 91h2v1h-2zM65 92h2v1h-2zM68 92h1v1h-1zM37 93h2v1h-2zM41 94h1v1h-1zM42 96h1v1h-1zM45 96h1v1h-1zM99 96h4v1h-4zM45 97h1v1h-1zM94 97h1v1h-1zM96 97h4v1h-4zM44 98h3v1h-3zM50 98h1v1h-1zM93 98h2v1h-2zM99 98h1v1h-1zM96 99h1v1h-1zM99 99h1v1h-1zM58 100h1v1h-1zM64 101h1v1h-1zM76 101h1v1h-1zM78 101h13v1h-13zM100 101h1v1h-1zM75 102h2v1h-2zM100 102h1v1h-1zM100 103h1v1h-1zM98 105h1v1h-1zM65 106h1v1h-1zM98 106h1v1h-1zM73 107h1v1h-1zM98 107h1v1h-1zM72 108h1v1h-1zM88 108h1v1h-1zM98 108h1v1h-1zM70 110h3v1h-3zM94 110h3v1h-3zM81 115h1v1h-1zM72 116h1v1h-1zM97 116h2v1h-2zM98 118h1v1h-1z"/><path fill="#3e1328" d="M56 20h1v1h-1zM54 21h1v1h-1zM52 22h2v1h-2zM60 22h2v1h-2zM52 23h1v1h-1zM52 24h1v1h-1zM67 24h1v1h-1zM52 25h1v1h-1zM68 25h1v1h-1zM54 29h1v1h-1zM54 31h1v1h-1zM54 32h1v1h-1zM54 33h1v1h-1zM54 34h1v1h-1zM54 36h1v1h-1zM83 36h1v1h-1zM54 38h1v1h-1zM86 39h1v1h-1zM86 40h1v1h-1zM88 40h1v1h-1zM51 42h1v1h-1zM51 43h2v1h-2zM89 43h1v1h-1zM51 44h1v1h-1zM90 44h1v1h-1zM51 45h1v1h-1zM90 45h1v1h-1zM51 46h1v1h-1zM51 47h1v1h-1zM92 47h1v1h-1zM50 48h1v1h-1zM92 48h1v1h-1zM49 49h1v1h-1zM95 49h1v1h-1zM49 50h1v1h-1zM49 51h1v1h-1zM72 51h1v1h-1zM49 52h1v1h-1zM74 54h1v1h-1zM46 56h1v1h-1zM43 60h1v1h-1zM39 66h1v1h-1zM37 67h1v1h-1zM38 68h1v1h-1zM108 71h1v1h-1zM110 71h1v1h-1zM106 72h1v1h-1zM30 73h1v1h-1zM115 74h1v1h-1zM46 75h1v1h-1zM101 78h1v1h-1zM22 80h1v1h-1zM109 80h1v1h-1zM22 81h1v1h-1zM109 81h1v1h-1zM31 82h1v1h-1zM105 82h1v1h-1zM110 82h1v1h-1zM105 83h1v1h-1zM20 84h1v1h-1zM30 84h1v1h-1zM20 87h1v1h-1zM33 87h1v1h-1zM106 89h1v1h-1zM22 90h1v1h-1zM29 90h1v1h-1zM35 90h1v1h-1zM117 90h3v1h-3zM24 91h1v1h-1zM27 92h1v1h-1zM35 92h2v1h-2zM104 92h1v1h-1zM39 94h1v1h-1zM100 97h1v1h-1zM52 100h1v1h-1zM53 101h10v1h-10zM91 102h1v1h-1zM88 107h1v1h-1zM61 108h1v1h-1zM60 109h1v1h-1zM72 109h1v1h-1zM85 109h1v1h-1zM97 109h1v1h-1zM84 111h1v1h-1zM56 113h2v1h-2zM74 113h1v1h-1zM81 113h1v1h-1zM98 113h1v1h-1zM80 114h2v1h-2zM98 114h2v1h-2zM80 115h1v1h-1zM98 115h1v1h-1zM80 116h1v1h-1zM99 116h1v1h-1zM80 117h1v1h-1zM56 118h1v1h-1zM80 118h1v1h-1zM99 118h1v1h-1z"/><path fill="#3e1328" d="M57 20h2v1h-2zM54 22h1v1h-1zM65 24h2v1h-2zM54 28h1v1h-1zM54 30h1v1h-1zM54 35h1v1h-1zM85 38h2v1h-2zM54 39h1v1h-1zM85 40h1v1h-1zM52 44h1v1h-1zM52 45h1v1h-1zM52 48h1v1h-1zM97 51h5v1h-5zM63 52h3v1h-3zM68 52h5v1h-5zM93 52h1v1h-1zM95 52h5v1h-5zM102 52h1v1h-1zM49 53h1v1h-1zM90 54h2v1h-2zM77 56h1v1h-1zM106 56h1v1h-1zM45 57h4v1h-4zM45 58h1v1h-1zM56 58h2v1h-2zM69 58h1v1h-1zM73 58h2v1h-2zM78 58h1v1h-1zM101 58h2v1h-2zM45 59h1v1h-1zM56 59h2v1h-2zM73 59h1v1h-1zM78 59h1v1h-1zM96 59h1v1h-1zM42 60h1v1h-1zM44 60h1v1h-1zM56 60h2v1h-2zM68 60h1v1h-1zM42 61h4v1h-4zM56 61h2v1h-2zM104 61h1v1h-1zM42 62h2v1h-2zM56 62h2v1h-2zM104 62h1v1h-1zM42 63h1v1h-1zM56 63h2v1h-2zM40 64h1v1h-1zM42 64h1v1h-1zM56 64h2v1h-2zM74 64h1v1h-1zM101 64h1v1h-1zM40 65h1v1h-1zM56 65h2v1h-2zM67 65h1v1h-1zM94 65h1v1h-1zM104 65h1v1h-1zM40 66h1v1h-1zM56 66h2v1h-2zM38 67h1v1h-1zM56 67h2v1h-2zM67 67h1v1h-1zM104 67h1v1h-1zM36 68h2v1h-2zM56 68h2v1h-2zM96 68h1v1h-1zM35 69h1v1h-1zM56 69h2v1h-2zM69 69h1v1h-1zM35 70h1v1h-1zM111 71h1v1h-1zM35 72h1v1h-1zM39 72h1v1h-1zM43 72h1v1h-1zM88 72h1v1h-1zM108 72h1v1h-1zM111 72h1v1h-1zM42 73h2v1h-2zM113 73h2v1h-2zM23 74h2v1h-2zM27 74h2v1h-2zM60 74h1v1h-1zM90 74h1v1h-1zM103 74h1v1h-1zM23 75h1v1h-1zM45 75h1v1h-1zM47 75h1v1h-1zM63 75h1v1h-1zM117 75h1v1h-1zM26 76h1v1h-1zM64 76h2v1h-2zM72 76h1v1h-1zM92 76h1v1h-1zM116 76h1v1h-1zM118 77h1v1h-1zM118 78h2v1h-2zM22 79h1v1h-1zM107 79h1v1h-1zM31 80h1v1h-1zM79 80h1v1h-1zM120 80h1v1h-1zM43 81h1v1h-1zM101 81h1v1h-1zM120 81h1v1h-1zM21 82h1v1h-1zM85 82h2v1h-2zM111 82h1v1h-1zM121 82h2v1h-2zM21 83h1v1h-1zM104 83h1v1h-1zM31 84h2v1h-2zM105 84h1v1h-1zM20 85h1v1h-1zM105 85h1v1h-1zM34 86h2v1h-2zM105 86h2v1h-2zM21 87h1v1h-1zM35 87h1v1h-1zM120 87h2v1h-2zM21 88h1v1h-1zM21 89h1v1h-1zM35 89h1v1h-1zM116 89h1v1h-1zM25 90h1v1h-1zM28 90h1v1h-1zM25 91h1v1h-1zM61 92h3v1h-3zM70 94h3v1h-3zM44 95h1v1h-1zM40 96h1v1h-1zM44 96h1v1h-1zM46 96h1v1h-1zM72 96h1v1h-1zM98 96h1v1h-1zM44 97h1v1h-1zM73 97h1v1h-1zM93 97h1v1h-1zM47 98h1v1h-1zM51 98h1v1h-1zM73 98h1v1h-1zM95 98h1v1h-1zM98 98h1v1h-1zM74 99h1v1h-1zM76 99h1v1h-1zM95 99h1v1h-1zM98 99h1v1h-1zM54 100h1v1h-1zM76 100h1v1h-1zM75 101h1v1h-1zM75 103h2v1h-2zM74 105h1v1h-1zM64 106h1v1h-1zM89 106h3v1h-3zM64 107h1v1h-1zM62 108h1v1h-1zM74 108h1v1h-1zM97 108h1v1h-1zM62 109h1v1h-1zM71 109h1v1h-1zM95 109h1v1h-1zM62 110h1v1h-1zM69 110h1v1h-1zM85 110h2v1h-2zM84 112h1v1h-1z"/><path fill="#3e1328" d="M59 20h1v1h-1zM65 22h1v1h-1zM66 23h1v1h-1zM52 26h1v1h-1zM81 34h1v1h-1zM51 41h2v1h-2zM52 42h1v1h-1zM90 43h1v1h-1zM91 44h1v1h-1zM93 47h1v1h-1zM49 48h1v1h-1zM94 48h1v1h-1zM45 56h1v1h-1zM37 66h1v1h-1zM112 71h1v1h-1zM27 72h1v1h-1zM118 75h1v1h-1zM118 76h1v1h-1zM119 77h2v1h-2zM22 78h1v1h-1zM106 80h1v1h-1zM21 81h1v1h-1zM106 81h1v1h-1zM121 81h1v1h-1zM123 82h1v1h-1zM123 83h1v1h-1zM107 84h1v1h-1zM111 84h1v1h-1zM123 84h1v1h-1zM107 85h1v1h-1zM111 85h1v1h-1zM123 85h1v1h-1zM107 86h1v1h-1zM111 86h1v1h-1zM123 86h1v1h-1zM34 87h1v1h-1zM107 87h1v1h-1zM113 87h1v1h-1zM123 87h1v1h-1zM113 88h2v1h-2zM122 88h2v1h-2zM107 89h1v1h-1zM115 89h1v1h-1zM121 89h1v1h-1zM106 90h1v1h-1zM115 90h1v1h-1zM120 90h2v1h-2zM28 91h1v1h-1zM105 92h1v1h-1zM105 93h1v1h-1zM37 94h2v1h-2zM105 94h1v1h-1zM100 98h1v1h-1zM100 99h1v1h-1zM100 100h1v1h-1zM66 102h1v1h-1zM101 102h1v1h-1zM91 103h1v1h-1zM101 103h1v1h-1zM75 104h2v1h-2zM91 104h1v1h-1zM100 104h1v1h-1zM66 105h1v1h-1zM99 105h1v1h-1zM99 106h1v1h-1zM99 107h1v1h-1zM86 108h1v1h-1zM99 108h1v1h-1zM97 110h1v1h-1zM80 113h1v1h-1zM99 113h1v1h-1zM99 115h1v1h-1zM56 119h19v1h-19zM81 119h18v1h-18z"/><path fill="#3a120f" d="M55 21h5v1h-5zM55 22h1v1h-1zM55 28h1v1h-1zM55 29h1v1h-1zM55 30h1v1h-1zM74 30h2v1h-2zM55 31h1v1h-1zM55 32h1v1h-1zM55 33h1v1h-1zM78 33h1v1h-1zM55 34h1v1h-1zM55 35h1v1h-1zM81 35h1v1h-1zM55 36h1v1h-1zM55 37h1v1h-1zM83 37h1v1h-1zM55 38h1v1h-1zM55 39h1v1h-1zM87 44h2v1h-2zM51 49h2v1h-2zM75 53h1v1h-1zM49 54h2v1h-2zM87 55h1v1h-1zM78 57h1v1h-1zM85 57h2v1h-2zM43 65h1v1h-1zM37 69h2v1h-2zM41 71h2v1h-2zM44 72h2v1h-2zM87 72h1v1h-1zM36 73h1v1h-1zM106 73h2v1h-2zM111 73h1v1h-1zM31 74h2v1h-2zM47 74h2v1h-2zM75 74h1v1h-1zM111 74h1v1h-1zM25 75h1v1h-1zM104 75h1v1h-1zM37 77h1v1h-1zM108 77h1v1h-1zM110 78h1v1h-1zM35 80h3v1h-3zM30 81h1v1h-1zM78 81h1v1h-1zM32 82h2v1h-2zM29 84h1v1h-1zM22 86h1v1h-1zM36 90h1v1h-1zM61 93h2v1h-2zM101 93h2v1h-2zM47 97h6v1h-6zM66 98h1v1h-1zM66 99h1v1h-1zM67 100h2v1h-2z"/><path fill="#3e1328" d="M51 22h1v1h-1zM66 22h1v1h-1zM51 23h1v1h-1zM67 23h1v1h-1zM51 24h1v1h-1zM69 25h1v1h-1zM72 27h1v1h-1zM73 28h1v1h-1zM75 29h1v1h-1zM84 36h1v1h-1zM84 37h1v1h-1zM87 39h1v1h-1zM52 40h1v1h-1zM91 43h1v1h-1zM91 45h1v1h-1zM92 46h2v1h-2zM95 48h1v1h-1zM107 56h1v1h-1zM44 57h1v1h-1zM44 58h1v1h-1zM109 58h1v1h-1zM44 59h1v1h-1zM109 59h1v1h-1zM109 60h1v1h-1zM109 61h1v1h-1zM109 62h1v1h-1zM109 63h1v1h-1zM109 64h1v1h-1zM109 65h1v1h-1zM109 66h1v1h-1zM109 67h1v1h-1zM109 68h1v1h-1zM109 69h1v1h-1zM109 70h1v1h-1zM23 73h4v1h-4zM122 81h1v1h-1zM109 82h1v1h-1zM20 83h1v1h-1zM111 83h1v1h-1zM19 86h1v1h-1zM19 87h1v1h-1zM107 88h1v1h-1zM21 90h1v1h-1zM31 90h1v1h-1zM107 90h1v1h-1zM23 91h1v1h-1zM28 92h1v1h-1zM39 95h1v1h-1zM39 96h1v1h-1zM51 99h1v1h-1zM52 101h1v1h-1zM101 101h1v1h-1zM66 103h1v1h-1zM66 104h1v1h-1zM101 104h1v1h-1zM64 105h2v1h-2zM89 105h2v1h-2zM61 107h3v1h-3zM86 107h2v1h-2zM84 109h1v1h-1zM59 110h1v1h-1zM84 110h1v1h-1zM59 111h1v1h-1zM80 119h1v1h-1zM99 119h1v1h-1z"/><path fill="#ea7b0e" d="M56 22h3v1h-3zM59 23h1v1h-1zM70 28h1v1h-1zM64 29h1v1h-1zM67 29h1v1h-1zM64 30h1v1h-1zM67 30h1v1h-1zM75 32h1v1h-1zM77 33h1v1h-1zM74 35h2v1h-2zM77 37h3v1h-3zM82 37h1v1h-1zM84 40h1v1h-1zM86 41h1v1h-1zM80 43h3v1h-3zM89 46h1v1h-1zM59 54h1v1h-1zM57 55h1v1h-1zM56 56h1v1h-1zM84 59h1v1h-1zM81 60h1v1h-1zM84 61h1v1h-1zM84 62h1v1h-1zM81 63h1v1h-1zM84 63h1v1h-1zM81 64h1v1h-1zM84 64h1v1h-1zM84 65h1v1h-1zM84 66h1v1h-1zM81 67h1v1h-1zM84 67h1v1h-1zM41 68h1v1h-1zM84 68h1v1h-1zM84 69h1v1h-1zM84 70h1v1h-1zM80 71h1v1h-1zM75 75h1v1h-1zM100 78h1v1h-1zM100 79h1v1h-1zM81 81h1v1h-1zM88 82h1v1h-1zM83 84h1v1h-1zM103 90h1v1h-1zM71 91h1v1h-1z"/><path fill="#e27d1f" d="M59 22h1v1h-1zM64 24h1v1h-1zM64 25h2v1h-2zM66 26h1v1h-1zM66 27h4v1h-4zM73 29h1v1h-1zM75 31h1v1h-1zM69 32h2v1h-2zM73 34h1v1h-1zM78 34h2v1h-2zM71 36h1v1h-1zM76 36h1v1h-1zM82 36h1v1h-1zM71 37h1v1h-1zM76 37h1v1h-1zM73 38h1v1h-1zM80 38h1v1h-1zM84 38h1v1h-1zM80 39h1v1h-1zM84 39h1v1h-1zM75 40h1v1h-1zM80 40h1v1h-1zM77 41h4v1h-4zM85 41h1v1h-1zM80 42h1v1h-1zM91 46h1v1h-1zM91 47h1v1h-1zM91 48h1v1h-1zM91 49h1v1h-1zM62 50h12v1h-12zM92 50h1v1h-1zM76 53h1v1h-1zM76 54h1v1h-1zM78 55h1v1h-1zM78 56h1v1h-1zM55 57h1v1h-1zM42 66h2v1h-2zM37 70h5v1h-5zM55 70h1v1h-1zM55 71h1v1h-1zM78 71h2v1h-2zM55 72h1v1h-1zM78 72h1v1h-1zM76 73h2v1h-2zM76 74h1v1h-1zM74 75h1v1h-1zM62 77h1v1h-1zM91 77h1v1h-1zM78 79h3v1h-3zM87 79h3v1h-3zM87 82h1v1h-1zM101 82h1v1h-1zM87 83h1v1h-1zM105 87h1v1h-1zM105 88h1v1h-1zM105 89h1v1h-1zM104 90h2v1h-2zM71 92h1v1h-1zM72 93h1v1h-1zM73 94h1v1h-1z"/><path fill="#3e1328" d="M62 22h1v1h-1zM65 23h1v1h-1zM74 29h1v1h-1zM93 48h1v1h-1zM94 49h1v1h-1zM95 50h1v1h-1zM95 51h1v1h-1zM98 59h1v1h-1zM71 60h2v1h-2zM78 60h1v1h-1zM98 60h2v1h-2zM69 61h4v1h-4zM77 61h3v1h-3zM95 61h2v1h-2zM98 61h2v1h-2zM108 61h1v1h-1zM69 62h3v1h-3zM77 62h2v1h-2zM95 62h5v1h-5zM68 63h5v1h-5zM77 63h3v1h-3zM94 63h6v1h-6zM103 63h1v1h-1zM68 64h6v1h-6zM76 64h3v1h-3zM95 64h6v1h-6zM102 64h1v1h-1zM68 65h11v1h-11zM95 65h8v1h-8zM38 66h1v1h-1zM68 66h11v1h-11zM94 66h9v1h-9zM69 67h11v1h-11zM96 67h7v1h-7zM70 68h5v1h-5zM97 68h6v1h-6zM70 69h5v1h-5zM97 69h6v1h-6zM109 71h1v1h-1zM37 72h2v1h-2zM31 73h1v1h-1zM117 76h1v1h-1zM24 77h1v1h-1zM36 78h1v1h-1zM107 78h1v1h-1zM120 78h1v1h-1zM34 79h1v1h-1zM37 79h2v1h-2zM43 79h1v1h-1zM108 79h1v1h-1zM110 79h1v1h-1zM102 80h4v1h-4zM110 80h1v1h-1zM40 81h1v1h-1zM102 81h1v1h-1zM103 82h1v1h-1zM122 84h1v1h-1zM122 87h1v1h-1zM31 89h1v1h-1zM104 93h1v1h-1zM102 94h1v1h-1zM42 95h1v1h-1zM61 98h1v1h-1zM94 99h1v1h-1zM91 100h1v1h-1zM67 101h1v1h-1zM91 101h2v1h-2zM92 102h1v1h-1zM74 106h1v1h-1zM74 107h1v1h-1zM58 112h1v1h-1zM56 114h1v1h-1zM56 115h1v1h-1zM56 116h1v1h-1zM74 116h1v1h-1zM56 117h1v1h-1zM73 117h1v1h-1zM98 117h2v1h-2zM57 118h18v1h-18zM81 118h17v1h-17z"/><path fill="#3e1328" d="M63 22h1v1h-1zM51 48h1v1h-1zM94 50h1v1h-1zM50 51h1v1h-1zM102 51h1v1h-1zM66 52h1v1h-1zM50 53h1v1h-1zM48 54h1v1h-1zM48 55h1v1h-1zM76 55h1v1h-1zM108 58h1v1h-1zM69 59h1v1h-1zM100 59h1v1h-1zM76 60h1v1h-1zM79 60h1v1h-1zM100 60h1v1h-1zM103 60h2v1h-2zM67 61h1v1h-1zM76 62h1v1h-1zM76 63h1v1h-1zM79 64h1v1h-1zM41 65h1v1h-1zM39 67h1v1h-1zM79 68h1v1h-1zM75 69h1v1h-1zM78 69h2v1h-2zM98 70h2v1h-2zM101 70h1v1h-1zM33 71h3v1h-3zM37 71h1v1h-1zM106 71h2v1h-2zM31 72h4v1h-4zM36 72h1v1h-1zM76 72h1v1h-1zM91 73h1v1h-1zM103 73h1v1h-1zM61 74h1v1h-1zM91 74h1v1h-1zM24 75h1v1h-1zM69 75h1v1h-1zM71 75h1v1h-1zM92 75h1v1h-1zM94 75h7v1h-7zM102 75h1v1h-1zM24 76h1v1h-1zM45 76h1v1h-1zM102 76h1v1h-1zM102 77h1v1h-1zM107 77h1v1h-1zM23 78h1v1h-1zM102 78h1v1h-1zM106 78h1v1h-1zM23 79h1v1h-1zM33 79h1v1h-1zM42 79h1v1h-1zM102 79h1v1h-1zM38 80h2v1h-2zM44 80h1v1h-1zM103 81h1v1h-1zM105 81h1v1h-1zM111 81h1v1h-1zM44 82h1v1h-1zM30 83h1v1h-1zM122 83h1v1h-1zM104 84h1v1h-1zM106 84h1v1h-1zM32 87h1v1h-1zM22 89h1v1h-1zM30 89h1v1h-1zM119 89h1v1h-1zM26 90h1v1h-1zM30 90h1v1h-1zM116 90h1v1h-1zM37 91h1v1h-1zM39 93h3v1h-3zM103 94h1v1h-1zM43 95h1v1h-1zM45 95h1v1h-1zM49 98h1v1h-1zM53 98h1v1h-1zM64 98h1v1h-1zM52 99h1v1h-1zM97 99h1v1h-1zM99 100h1v1h-1zM63 101h1v1h-1zM92 103h1v1h-1zM67 104h1v1h-1zM92 104h1v1h-1zM73 105h1v1h-1zM91 105h1v1h-1zM64 108h1v1h-1zM73 113h1v1h-1zM73 114h1v1h-1zM57 115h1v1h-1zM73 115h1v1h-1zM57 116h1v1h-1zM57 117h1v1h-1zM74 117h1v1h-1zM96 117h1v1h-1z"/><path fill="#3e1328" d="M64 22h1v1h-1zM87 40h1v1h-1zM94 51h1v1h-1zM70 58h3v1h-3zM97 58h4v1h-4zM70 59h3v1h-3zM97 59h1v1h-1zM99 59h1v1h-1zM108 59h1v1h-1zM69 60h1v1h-1zM94 60h4v1h-4zM108 60h1v1h-1zM68 61h1v1h-1zM97 61h1v1h-1zM100 61h1v1h-1zM103 61h1v1h-1zM67 62h2v1h-2zM79 62h1v1h-1zM94 62h1v1h-1zM100 62h1v1h-1zM103 62h1v1h-1zM67 63h1v1h-1zM100 63h1v1h-1zM41 64h1v1h-1zM67 64h1v1h-1zM75 64h1v1h-1zM79 65h1v1h-1zM67 66h1v1h-1zM79 66h1v1h-1zM75 68h1v1h-1zM34 70h1v1h-1zM36 71h1v1h-1zM40 72h1v1h-1zM26 74h1v1h-1zM45 74h1v1h-1zM70 76h2v1h-2zM95 76h2v1h-2zM101 76h1v1h-1zM39 79h3v1h-3zM101 79h1v1h-1zM109 79h1v1h-1zM32 80h2v1h-2zM40 80h4v1h-4zM101 80h1v1h-1zM39 81h1v1h-1zM41 81h2v1h-2zM44 81h1v1h-1zM104 81h1v1h-1zM110 81h1v1h-1zM104 82h1v1h-1zM122 85h1v1h-1zM31 87h1v1h-1zM121 88h1v1h-1zM28 89h1v1h-1zM37 92h1v1h-1zM64 92h1v1h-1zM67 92h1v1h-1zM69 92h1v1h-1zM69 93h1v1h-1zM40 94h1v1h-1zM69 94h1v1h-1zM40 95h2v1h-2zM101 95h2v1h-2zM41 96h1v1h-1zM43 96h1v1h-1zM46 97h1v1h-1zM95 97h1v1h-1zM52 98h1v1h-1zM62 98h1v1h-1zM96 98h2v1h-2zM61 99h5v1h-5zM75 99h1v1h-1zM90 99h4v1h-4zM53 100h1v1h-1zM55 100h3v1h-3zM60 100h6v1h-6zM75 100h1v1h-1zM90 100h1v1h-1zM92 100h1v1h-1zM66 101h1v1h-1zM77 101h1v1h-1zM67 102h1v1h-1zM67 103h1v1h-1zM63 108h1v1h-1zM87 108h1v1h-1zM96 109h1v1h-1zM60 110h2v1h-2zM59 112h1v1h-1zM57 114h1v1h-1zM74 114h1v1h-1zM74 115h1v1h-1zM73 116h1v1h-1zM96 116h1v1h-1zM72 117h1v1h-1zM81 117h1v1h-1zM97 117h1v1h-1z"/><path fill="#4d3532" d="M53 23h1v1h-1zM64 23h1v1h-1zM53 25h1v1h-1zM53 26h1v1h-1zM71 26h1v1h-1zM82 35h1v1h-1zM53 40h1v1h-1zM73 51h1v1h-1zM73 52h1v1h-1zM105 55h1v1h-1zM105 56h1v1h-1zM69 57h5v1h-5zM75 57h1v1h-1zM97 57h6v1h-6zM46 58h1v1h-1zM74 59h2v1h-2zM102 59h1v1h-1zM73 60h1v1h-1zM73 63h1v1h-1zM67 68h2v1h-2zM76 68h2v1h-2zM94 68h2v1h-2zM103 68h2v1h-2zM69 70h1v1h-1zM96 70h1v1h-1zM41 73h1v1h-1zM89 73h1v1h-1zM105 73h1v1h-1zM30 74h1v1h-1zM89 74h1v1h-1zM44 75h1v1h-1zM73 75h1v1h-1zM29 76h1v1h-1zM44 76h1v1h-1zM47 76h2v1h-2zM73 76h1v1h-1zM35 77h1v1h-1zM24 79h1v1h-1zM32 79h1v1h-1zM103 79h2v1h-2zM111 79h1v1h-1zM45 80h1v1h-1zM111 80h1v1h-1zM23 81h1v1h-1zM34 81h1v1h-1zM80 82h1v1h-1zM80 83h1v1h-1zM121 83h1v1h-1zM30 87h1v1h-1zM28 88h1v1h-1zM24 89h1v1h-1zM27 89h1v1h-1zM68 94h1v1h-1zM70 96h1v1h-1zM70 97h1v1h-1zM89 100h1v1h-1zM94 100h3v1h-3zM77 102h2v1h-2zM73 104h2v1h-2zM98 104h1v1h-1zM67 105h2v1h-2zM92 105h1v1h-1zM97 105h1v1h-1zM97 106h1v1h-1zM65 107h2v1h-2zM90 107h1v1h-1zM63 109h2v1h-2zM93 110h1v1h-1zM71 111h2v1h-2zM85 111h3v1h-3zM95 111h3v1h-3zM60 112h1v1h-1zM82 116h1v1h-1zM82 117h1v1h-1z"/><path fill="#713b24" d="M54 23h1v1h-1zM61 23h3v1h-3zM53 24h1v1h-1zM53 41h1v1h-1zM53 42h1v1h-1zM53 43h1v1h-1zM53 44h1v1h-1zM53 45h1v1h-1zM53 46h1v1h-1zM53 47h1v1h-1zM89 54h1v1h-1zM33 73h2v1h-2zM37 73h2v1h-2zM109 73h2v1h-2zM33 74h1v1h-1zM35 74h2v1h-2zM38 74h1v1h-1zM41 74h1v1h-1zM105 74h1v1h-1zM62 75h1v1h-1zM105 75h1v1h-1zM36 76h1v1h-1zM103 76h2v1h-2zM107 76h1v1h-1zM27 77h1v1h-1zM103 77h4v1h-4zM115 77h2v1h-2zM26 78h1v1h-1zM32 78h1v1h-1zM42 78h3v1h-3zM103 78h2v1h-2zM111 78h1v1h-1zM30 79h2v1h-2zM119 79h1v1h-1zM24 80h1v1h-1zM30 80h1v1h-1zM46 80h1v1h-1zM112 80h1v1h-1zM119 80h1v1h-1zM24 81h1v1h-1zM113 81h1v1h-1zM119 81h1v1h-1zM23 82h1v1h-1zM29 82h1v1h-1zM113 82h1v1h-1zM119 82h1v1h-1zM29 83h1v1h-1zM120 83h1v1h-1zM22 84h1v1h-1zM28 84h1v1h-1zM121 84h1v1h-1zM22 85h1v1h-1zM30 85h1v1h-1zM34 85h2v1h-2zM121 85h1v1h-1zM23 86h1v1h-1zM30 86h1v1h-1zM121 86h1v1h-1zM23 87h1v1h-1zM115 87h1v1h-1zM23 88h1v1h-1zM27 88h1v1h-1zM29 88h1v1h-1zM115 88h1v1h-1zM119 88h1v1h-1zM25 89h1v1h-1zM103 92h1v1h-1zM68 95h1v1h-1zM69 96h1v1h-1zM61 97h2v1h-2zM70 98h3v1h-3zM90 98h2v1h-2zM54 99h7v1h-7zM67 99h1v1h-1zM72 99h1v1h-1zM72 100h1v1h-1zM74 101h1v1h-1zM74 102h1v1h-1zM74 103h1v1h-1zM97 104h1v1h-1zM72 105h1v1h-1zM93 105h1v1h-1zM67 106h1v1h-1zM72 106h1v1h-1zM92 106h1v1h-1zM67 107h1v1h-1zM70 107h1v1h-1zM91 107h1v1h-1zM65 108h1v1h-1zM70 108h1v1h-1zM65 109h1v1h-1zM68 109h1v1h-1zM88 109h2v1h-2zM93 109h1v1h-1zM63 110h1v1h-1zM68 110h1v1h-1zM63 111h1v1h-1zM69 111h2v1h-2zM94 111h1v1h-1zM72 112h1v1h-1zM85 112h1v1h-1zM96 112h2v1h-2zM58 113h3v1h-3zM83 113h2v1h-2zM97 113h1v1h-1zM58 114h1v1h-1zM97 114h1v1h-1zM58 115h1v1h-1zM71 115h2v1h-2zM96 115h2v1h-2zM58 116h1v1h-1zM70 116h1v1h-1zM58 117h13v1h-13zM83 117h13v1h-13z"/><path fill="#95441d" d="M55 23h1v1h-1zM54 40h1v1h-1zM53 49h1v1h-1zM80 64h1v1h-1zM80 66h1v1h-1zM80 67h1v1h-1zM80 68h1v1h-1zM80 69h1v1h-1zM89 80h1v1h-1zM47 81h2v1h-2zM89 81h1v1h-1zM47 82h2v1h-2zM32 83h1v1h-1zM36 85h1v1h-1zM61 91h4v1h-4zM97 95h1v1h-1zM97 96h1v1h-1zM78 100h11v1h-11zM67 111h1v1h-1z"/><path fill="#ef7a09" d="M56 23h2v1h-2zM66 28h1v1h-1zM69 28h1v1h-1zM68 29h2v1h-2zM72 30h1v1h-1zM70 31h1v1h-1zM74 31h1v1h-1zM74 32h1v1h-1zM76 35h1v1h-1zM70 36h1v1h-1zM79 36h1v1h-1zM81 37h1v1h-1zM71 38h1v1h-1zM83 42h1v1h-1zM86 44h1v1h-1zM89 47h1v1h-1zM60 52h1v1h-1zM89 52h1v1h-1zM57 53h1v1h-1zM54 56h1v1h-1zM79 56h1v1h-1zM81 57h1v1h-1zM81 59h1v1h-1zM82 60h2v1h-2zM54 61h1v1h-1zM82 61h2v1h-2zM54 62h1v1h-1zM81 62h3v1h-3zM52 63h1v1h-1zM54 63h1v1h-1zM82 63h2v1h-2zM82 64h2v1h-2zM54 65h1v1h-1zM81 65h3v1h-3zM54 66h1v1h-1zM82 66h2v1h-2zM54 67h1v1h-1zM82 67h2v1h-2zM40 68h1v1h-1zM42 68h1v1h-1zM83 68h1v1h-1zM81 69h3v1h-3zM83 70h1v1h-1zM81 71h3v1h-3zM82 72h2v1h-2zM81 73h1v1h-1zM83 73h1v1h-1zM78 74h1v1h-1zM81 74h2v1h-2zM77 75h2v1h-2zM77 76h1v1h-1zM74 77h1v1h-1zM76 77h2v1h-2zM66 78h2v1h-2zM73 78h1v1h-1zM77 78h1v1h-1zM81 78h3v1h-3zM86 78h2v1h-2zM96 78h4v1h-4zM82 79h3v1h-3zM86 79h1v1h-1zM91 79h2v1h-2zM99 79h1v1h-1zM82 80h4v1h-4zM90 80h3v1h-3zM97 80h1v1h-1zM99 80h1v1h-1zM88 83h1v1h-1zM101 83h1v1h-1zM80 84h1v1h-1zM85 84h1v1h-1zM87 84h1v1h-1zM83 85h1v1h-1zM86 85h2v1h-2zM99 85h1v1h-1zM84 86h1v1h-1zM83 87h1v1h-1z"/><path fill="#f17b0b" d="M58 23h1v1h-1zM57 26h1v1h-1zM58 27h1v1h-1zM59 28h1v1h-1zM78 35h1v1h-1zM80 36h1v1h-1zM74 41h1v1h-1zM79 42h1v1h-1zM79 49h1v1h-1zM58 52h1v1h-1zM55 55h1v1h-1zM55 56h1v1h-1zM83 56h1v1h-1zM85 56h1v1h-1zM51 64h1v1h-1zM51 65h1v1h-1zM53 65h1v1h-1zM51 66h1v1h-1zM53 66h1v1h-1zM42 67h1v1h-1zM53 67h1v1h-1zM43 68h1v1h-1zM49 68h1v1h-1zM40 69h1v1h-1zM84 71h1v1h-1zM49 73h1v1h-1zM55 73h1v1h-1zM85 73h2v1h-2zM49 74h1v1h-1zM57 74h1v1h-1zM49 75h1v1h-1zM49 76h1v1h-1zM59 78h1v1h-1zM49 82h2v1h-2zM51 84h1v1h-1zM81 84h2v1h-2zM84 84h1v1h-1zM86 84h1v1h-1zM104 87h1v1h-1zM58 89h1v1h-1zM72 91h1v1h-1zM75 93h1v1h-1z"/><path fill="#773d20" d="M60 23h1v1h-1zM89 53h1v1h-1zM28 77h2v1h-2zM32 77h2v1h-2zM27 78h2v1h-2zM30 78h1v1h-1zM115 78h1v1h-1zM25 79h1v1h-1zM28 79h2v1h-2zM118 79h1v1h-1zM25 80h2v1h-2zM28 80h2v1h-2zM113 80h4v1h-4zM26 81h3v1h-3zM114 81h4v1h-4zM25 82h3v1h-3zM102 82h1v1h-1zM114 82h3v1h-3zM25 83h1v1h-1zM27 83h1v1h-1zM113 83h2v1h-2zM117 83h1v1h-1zM119 83h1v1h-1zM24 84h4v1h-4zM113 84h2v1h-2zM116 84h3v1h-3zM120 84h1v1h-1zM23 85h4v1h-4zM113 85h2v1h-2zM116 85h2v1h-2zM26 86h3v1h-3zM115 86h1v1h-1zM119 86h2v1h-2zM24 87h1v1h-1zM26 87h2v1h-2zM116 87h4v1h-4zM116 88h3v1h-3zM26 89h1v1h-1zM37 90h1v1h-1zM63 97h1v1h-1zM89 99h1v1h-1zM98 101h1v1h-1zM94 104h1v1h-1zM93 106h3v1h-3zM92 107h1v1h-1zM95 107h1v1h-1zM90 108h1v1h-1zM95 108h1v1h-1zM64 110h2v1h-2zM67 113h1v1h-1zM72 113h1v1h-1zM69 114h1v1h-1zM71 114h2v1h-2zM69 115h1v1h-1zM69 116h1v1h-1zM95 116h1v1h-1z"/><path fill="#f27d07" d="M54 24h1v1h-1zM58 26h1v1h-1zM61 29h1v1h-1zM63 29h1v1h-1zM71 29h1v1h-1zM61 30h3v1h-3zM61 31h3v1h-3zM67 31h1v1h-1zM69 31h1v1h-1zM62 32h6v1h-6zM61 33h2v1h-2zM64 33h1v1h-1zM73 33h1v1h-1zM61 34h7v1h-7zM75 34h1v1h-1zM61 35h7v1h-7zM77 35h1v1h-1zM61 36h8v1h-8zM61 37h3v1h-3zM65 37h3v1h-3zM61 38h1v1h-1zM63 38h1v1h-1zM65 38h1v1h-1zM67 38h1v1h-1zM83 38h1v1h-1zM70 40h3v1h-3zM70 41h1v1h-1zM70 42h1v1h-1zM74 42h1v1h-1zM76 42h2v1h-2zM77 43h1v1h-1zM79 43h1v1h-1zM76 44h2v1h-2zM80 44h2v1h-2zM75 45h3v1h-3zM87 45h1v1h-1zM75 46h4v1h-4zM86 46h1v1h-1zM77 47h1v1h-1zM75 48h1v1h-1zM78 48h2v1h-2zM75 49h4v1h-4zM59 50h1v1h-1zM75 50h4v1h-4zM57 51h4v1h-4zM75 51h4v1h-4zM57 54h1v1h-1zM54 57h1v1h-1zM54 60h1v1h-1zM52 65h1v1h-1zM51 68h1v1h-1zM50 70h3v1h-3zM50 71h3v1h-3zM50 72h2v1h-2zM53 72h1v1h-1zM51 74h4v1h-4zM56 74h1v1h-1zM86 74h1v1h-1zM57 75h1v1h-1zM52 76h1v1h-1zM54 76h2v1h-2zM53 77h2v1h-2zM56 77h3v1h-3zM53 78h2v1h-2zM56 78h3v1h-3zM60 78h1v1h-1zM51 82h2v1h-2z"/><path fill="#f37b04" d="M55 24h3v1h-3zM59 24h1v1h-1zM65 28h1v1h-1zM68 28h1v1h-1zM78 42h1v1h-1zM85 42h2v1h-2zM88 45h1v1h-1zM88 52h1v1h-1zM90 52h1v1h-1zM88 53h1v1h-1zM51 73h1v1h-1zM50 75h1v1h-1zM50 76h1v1h-1zM74 76h1v1h-1zM88 77h1v1h-1zM61 78h4v1h-4zM69 78h1v1h-1zM88 78h1v1h-1zM91 78h4v1h-4zM76 79h1v1h-1zM76 80h1v1h-1zM86 80h1v1h-1zM76 81h2v1h-2zM77 82h1v1h-1zM79 83h1v1h-1zM56 85h1v1h-1zM102 87h1v1h-1zM104 89h1v1h-1zM67 90h1v1h-1z"/><path fill="#f17b08" d="M58 24h1v1h-1zM57 25h1v1h-1zM63 25h1v1h-1zM60 26h1v1h-1zM62 26h1v1h-1zM65 26h1v1h-1zM60 27h1v1h-1zM62 27h3v1h-3zM60 28h3v1h-3zM60 29h1v1h-1zM62 29h1v1h-1zM70 29h1v1h-1zM60 30h1v1h-1zM71 30h1v1h-1zM60 31h1v1h-1zM61 32h1v1h-1zM73 32h1v1h-1zM66 33h2v1h-2zM68 35h1v1h-1zM77 36h1v1h-1zM60 38h1v1h-1zM82 38h1v1h-1zM83 39h1v1h-1zM73 40h1v1h-1zM81 40h1v1h-1zM71 41h1v1h-1zM73 41h1v1h-1zM83 41h1v1h-1zM71 42h1v1h-1zM73 42h1v1h-1zM84 43h2v1h-2zM82 44h4v1h-4zM58 45h1v1h-1zM80 45h4v1h-4zM72 46h1v1h-1zM79 46h1v1h-1zM82 46h2v1h-2zM88 46h1v1h-1zM58 47h1v1h-1zM75 47h2v1h-2zM79 47h5v1h-5zM87 47h1v1h-1zM58 48h1v1h-1zM65 48h6v1h-6zM80 48h2v1h-2zM84 48h4v1h-4zM58 49h1v1h-1zM70 49h1v1h-1zM80 49h2v1h-2zM84 49h2v1h-2zM87 49h1v1h-1zM57 50h2v1h-2zM79 50h1v1h-1zM81 50h4v1h-4zM86 50h2v1h-2zM56 51h1v1h-1zM79 51h9v1h-9zM79 52h3v1h-3zM83 52h1v1h-1zM87 52h1v1h-1zM79 53h5v1h-5zM79 54h5v1h-5zM86 54h1v1h-1zM79 55h7v1h-7zM81 56h1v1h-1zM83 57h1v1h-1zM83 58h1v1h-1zM52 64h1v1h-1zM49 67h1v1h-1zM51 67h1v1h-1zM49 70h1v1h-1zM53 70h1v1h-1zM52 72h1v1h-1zM79 72h3v1h-3zM79 73h2v1h-2zM82 73h1v1h-1zM79 74h2v1h-2zM83 74h2v1h-2zM53 75h1v1h-1zM76 75h1v1h-1zM79 75h8v1h-8zM53 76h1v1h-1zM76 76h1v1h-1zM78 76h9v1h-9zM75 77h1v1h-1zM78 77h9v1h-9zM55 78h1v1h-1zM65 78h1v1h-1zM75 78h2v1h-2zM78 78h1v1h-1zM80 78h1v1h-1zM84 78h2v1h-2zM89 78h1v1h-1zM74 79h1v1h-1zM81 79h1v1h-1zM85 79h1v1h-1zM93 79h6v1h-6zM93 80h4v1h-4zM98 80h1v1h-1zM93 81h6v1h-6zM69 82h1v1h-1zM89 82h2v1h-2zM92 82h7v1h-7zM89 83h10v1h-10zM53 84h1v1h-1zM88 84h10v1h-10zM100 84h2v1h-2zM82 85h1v1h-1zM88 85h11v1h-11zM81 86h2v1h-2zM85 86h15v1h-15zM81 87h1v1h-1zM84 87h1v1h-1zM86 87h1v1h-1zM88 87h12v1h-12zM83 88h1v1h-1zM87 88h1v1h-1zM92 88h2v1h-2zM96 88h1v1h-1zM101 88h1v1h-1zM71 89h2v1h-2zM83 89h1v1h-1zM91 89h1v1h-1zM93 89h2v1h-2zM101 89h1v1h-1zM86 90h2v1h-2zM89 90h1v1h-1zM92 90h3v1h-3zM97 90h4v1h-4zM85 91h1v1h-1zM73 92h2v1h-2zM84 92h1v1h-1zM76 93h1v1h-1zM78 93h1v1h-1z"/><path fill="#f37a08" d="M60 24h1v1h-1zM64 28h1v1h-1zM76 33h1v1h-1zM77 34h1v1h-1zM60 39h1v1h-1zM65 39h1v1h-1zM60 40h1v1h-1zM82 40h1v1h-1zM60 41h1v1h-1zM60 43h1v1h-1zM71 43h1v1h-1zM86 43h1v1h-1zM59 44h1v1h-1zM59 45h2v1h-2zM71 46h1v1h-1zM70 47h2v1h-2zM73 47h1v1h-1zM61 48h2v1h-2zM64 48h1v1h-1zM71 48h1v1h-1zM82 48h2v1h-2zM88 48h3v1h-3zM61 49h2v1h-2zM64 49h6v1h-6zM73 49h1v1h-1zM82 49h2v1h-2zM90 49h1v1h-1zM88 50h1v1h-1zM90 50h1v1h-1zM88 51h1v1h-1zM87 54h1v1h-1zM82 57h1v1h-1zM81 58h2v1h-2zM57 73h1v1h-1zM87 76h1v1h-1zM59 77h1v1h-1zM87 77h1v1h-1zM73 79h1v1h-1zM66 80h1v1h-1zM91 82h1v1h-1zM52 84h1v1h-1zM58 85h1v1h-1zM62 85h1v1h-1zM64 85h4v1h-4zM84 85h1v1h-1zM57 86h1v1h-1zM61 86h2v1h-2zM65 86h2v1h-2zM70 86h1v1h-1zM54 87h1v1h-1zM61 87h3v1h-3zM66 87h2v1h-2zM70 87h1v1h-1zM58 88h1v1h-1zM61 88h9v1h-9zM71 88h4v1h-4zM80 88h3v1h-3zM84 88h2v1h-2zM88 88h4v1h-4zM94 88h1v1h-1zM61 89h10v1h-10zM73 89h2v1h-2zM80 89h3v1h-3zM84 89h3v1h-3zM88 89h3v1h-3zM92 89h1v1h-1zM95 89h1v1h-1zM70 90h1v1h-1zM73 90h2v1h-2zM81 90h5v1h-5zM88 90h1v1h-1zM90 90h2v1h-2zM101 90h1v1h-1zM73 91h2v1h-2zM80 91h1v1h-1zM82 91h1v1h-1zM86 91h8v1h-8zM95 91h1v1h-1zM75 92h4v1h-4zM86 92h1v1h-1zM89 92h4v1h-4zM96 92h1v1h-1zM77 93h1v1h-1zM88 93h4v1h-4zM74 94h1v1h-1zM76 94h1v1h-1zM79 94h9v1h-9zM90 94h2v1h-2z"/><path fill="#f17c07" d="M61 24h1v1h-1zM63 24h1v1h-1zM59 25h4v1h-4zM59 26h1v1h-1zM61 26h1v1h-1zM63 26h1v1h-1zM59 27h1v1h-1zM61 27h1v1h-1zM65 27h1v1h-1zM63 28h1v1h-1zM67 28h1v1h-1zM72 29h1v1h-1zM68 30h2v1h-2zM64 31h1v1h-1zM68 31h1v1h-1zM72 31h2v1h-2zM60 32h1v1h-1zM68 32h1v1h-1zM72 32h1v1h-1zM60 33h1v1h-1zM63 33h1v1h-1zM65 33h1v1h-1zM72 33h1v1h-1zM74 33h1v1h-1zM74 34h1v1h-1zM76 34h1v1h-1zM78 36h1v1h-1zM70 37h1v1h-1zM81 38h1v1h-1zM70 39h3v1h-3zM74 40h1v1h-1zM72 41h1v1h-1zM75 41h1v1h-1zM72 42h1v1h-1zM75 43h2v1h-2zM78 43h1v1h-1zM83 43h1v1h-1zM78 44h2v1h-2zM78 45h2v1h-2zM84 45h3v1h-3zM74 46h1v1h-1zM80 46h2v1h-2zM84 46h2v1h-2zM87 46h1v1h-1zM72 47h1v1h-1zM74 47h1v1h-1zM78 47h1v1h-1zM84 47h3v1h-3zM88 47h1v1h-1zM74 48h1v1h-1zM76 48h1v1h-1zM74 49h1v1h-1zM86 49h1v1h-1zM56 50h1v1h-1zM80 50h1v1h-1zM85 50h1v1h-1zM56 52h2v1h-2zM76 52h3v1h-3zM82 52h1v1h-1zM84 52h3v1h-3zM56 53h1v1h-1zM77 53h2v1h-2zM84 53h4v1h-4zM56 54h1v1h-1zM78 54h1v1h-1zM84 54h2v1h-2zM56 55h1v1h-1zM53 63h1v1h-1zM53 64h2v1h-2zM52 66h1v1h-1zM50 67h1v1h-1zM52 67h1v1h-1zM50 68h1v1h-1zM52 68h3v1h-3zM49 69h6v1h-6zM54 70h1v1h-1zM49 71h1v1h-1zM53 71h1v1h-1zM49 72h1v1h-1zM54 72h1v1h-1zM50 73h1v1h-1zM52 73h3v1h-3zM50 74h1v1h-1zM55 74h1v1h-1zM85 74h1v1h-1zM54 75h3v1h-3zM56 76h1v1h-1zM58 76h1v1h-1zM55 77h1v1h-1zM68 78h1v1h-1zM70 78h1v1h-1zM72 78h1v1h-1zM74 78h1v1h-1zM79 78h1v1h-1zM90 78h1v1h-1zM95 78h1v1h-1zM49 79h1v1h-1zM69 79h1v1h-1zM75 79h1v1h-1zM90 79h1v1h-1zM69 80h1v1h-1zM74 80h2v1h-2zM81 80h1v1h-1zM90 81h3v1h-3zM99 81h1v1h-1zM99 82h1v1h-1zM78 83h1v1h-1zM99 83h2v1h-2zM54 84h1v1h-1zM98 84h2v1h-2zM80 85h1v1h-1zM100 85h3v1h-3zM83 86h1v1h-1zM100 86h3v1h-3zM82 87h1v1h-1zM85 87h1v1h-1zM87 87h1v1h-1zM100 87h2v1h-2zM103 87h1v1h-1zM97 88h4v1h-4zM103 88h2v1h-2zM87 89h1v1h-1zM96 89h1v1h-1zM98 89h1v1h-1zM100 89h1v1h-1zM103 89h1v1h-1zM96 91h1v1h-1zM85 92h1v1h-1zM87 92h1v1h-1zM79 93h9v1h-9z"/><path fill="#f37b06" d="M62 24h1v1h-1zM56 25h1v1h-1zM58 25h1v1h-1zM70 30h1v1h-1zM69 37h1v1h-1zM69 39h1v1h-1zM83 40h1v1h-1zM69 41h1v1h-1zM84 41h1v1h-1zM68 42h1v1h-1zM62 43h1v1h-1zM69 43h1v1h-1zM74 44h1v1h-1zM69 46h1v1h-1zM60 47h1v1h-1zM68 47h2v1h-2zM72 48h2v1h-2zM72 49h1v1h-1zM88 49h2v1h-2zM60 50h1v1h-1zM89 50h1v1h-1zM61 51h1v1h-1zM89 51h1v1h-1zM80 56h1v1h-1zM75 76h1v1h-1zM50 77h1v1h-1zM52 77h1v1h-1zM51 78h1v1h-1zM71 78h1v1h-1zM55 79h1v1h-1zM58 79h11v1h-11zM70 79h3v1h-3zM59 80h7v1h-7zM67 80h2v1h-2zM70 80h4v1h-4zM55 81h1v1h-1zM59 81h17v1h-17zM55 82h2v1h-2zM59 82h1v1h-1zM61 82h8v1h-8zM70 82h7v1h-7zM52 83h5v1h-5zM58 83h1v1h-1zM60 83h18v1h-18zM55 84h2v1h-2zM59 84h20v1h-20zM54 85h1v1h-1zM57 85h1v1h-1zM61 85h1v1h-1zM63 85h1v1h-1zM68 85h12v1h-12zM81 85h1v1h-1zM85 85h1v1h-1zM55 86h2v1h-2zM58 86h3v1h-3zM63 86h2v1h-2zM67 86h3v1h-3zM71 86h10v1h-10zM56 87h5v1h-5zM64 87h2v1h-2zM68 87h2v1h-2zM71 87h10v1h-10zM59 88h2v1h-2zM70 88h1v1h-1zM75 88h5v1h-5zM86 88h1v1h-1zM95 88h1v1h-1zM102 88h1v1h-1zM75 89h5v1h-5zM97 89h1v1h-1zM99 89h1v1h-1zM102 89h1v1h-1zM66 90h1v1h-1zM68 90h2v1h-2zM71 90h2v1h-2zM75 90h4v1h-4zM80 90h1v1h-1zM96 90h1v1h-1zM75 91h5v1h-5zM81 91h1v1h-1zM83 91h2v1h-2zM94 91h1v1h-1zM72 92h1v1h-1zM79 92h5v1h-5zM93 92h3v1h-3zM74 93h1v1h-1zM75 94h1v1h-1z"/><path fill="#3e1328" d="M68 24h1v1h-1zM67 25h1v1h-1zM68 26h3v1h-3zM72 28h1v1h-1zM77 31h1v1h-1zM79 33h1v1h-1zM89 44h1v1h-1zM92 49h2v1h-2zM60 53h2v1h-2zM74 53h1v1h-1zM90 53h1v1h-1zM60 54h1v1h-1zM103 54h2v1h-2zM58 55h2v1h-2zM77 55h1v1h-1zM88 55h1v1h-1zM58 56h2v1h-2zM76 56h1v1h-1zM88 56h1v1h-1zM74 57h1v1h-1zM75 58h1v1h-1zM96 58h1v1h-1zM101 59h1v1h-1zM73 61h1v1h-1zM73 62h1v1h-1zM40 67h1v1h-1zM35 68h1v1h-1zM36 69h1v1h-1zM96 69h1v1h-1zM36 70h1v1h-1zM56 70h1v1h-1zM70 70h6v1h-6zM85 70h2v1h-2zM97 70h1v1h-1zM102 70h1v1h-1zM38 71h2v1h-2zM58 71h2v1h-2zM76 71h1v1h-1zM87 71h2v1h-2zM105 71h1v1h-1zM58 72h2v1h-2zM105 72h1v1h-1zM28 73h2v1h-2zM40 73h1v1h-1zM60 73h2v1h-2zM74 73h1v1h-1zM90 73h1v1h-1zM104 73h1v1h-1zM29 74h1v1h-1zM42 74h1v1h-1zM44 74h1v1h-1zM46 74h1v1h-1zM74 74h1v1h-1zM112 74h3v1h-3zM29 75h1v1h-1zM103 75h1v1h-1zM115 75h1v1h-1zM25 76h1v1h-1zM27 76h2v1h-2zM46 76h1v1h-1zM115 76h1v1h-1zM25 77h2v1h-2zM36 77h1v1h-1zM117 77h1v1h-1zM24 78h1v1h-1zM34 78h2v1h-2zM37 78h5v1h-5zM105 78h1v1h-1zM108 78h1v1h-1zM117 78h1v1h-1zM34 80h1v1h-1zM38 81h1v1h-1zM46 81h1v1h-1zM79 81h1v1h-1zM88 81h1v1h-1zM112 81h1v1h-1zM22 82h1v1h-1zM30 82h1v1h-1zM42 82h1v1h-1zM46 82h1v1h-1zM84 82h1v1h-1zM31 83h1v1h-1zM81 83h6v1h-6zM112 83h1v1h-1zM33 84h1v1h-1zM112 84h1v1h-1zM21 85h1v1h-1zM31 85h1v1h-1zM104 85h1v1h-1zM112 85h1v1h-1zM104 86h1v1h-1zM112 86h1v1h-1zM114 87h1v1h-1zM22 88h1v1h-1zM30 88h1v1h-1zM23 89h1v1h-1zM38 91h1v1h-1zM38 92h1v1h-1zM65 93h4v1h-4zM103 93h1v1h-1zM42 94h1v1h-1zM46 95h1v1h-1zM69 95h2v1h-2zM98 95h3v1h-3zM71 96h1v1h-1zM73 96h1v1h-1zM71 97h1v1h-1zM74 97h1v1h-1zM75 98h2v1h-2zM92 98h1v1h-1zM66 100h1v1h-1zM73 100h2v1h-2zM93 100h1v1h-1zM97 100h2v1h-2zM68 101h1v1h-1zM99 101h1v1h-1zM68 102h1v1h-1zM99 102h1v1h-1zM68 103h1v1h-1zM99 103h1v1h-1zM68 104h1v1h-1zM99 104h1v1h-1zM66 106h1v1h-1zM72 107h1v1h-1zM96 107h1v1h-1zM71 108h1v1h-1zM89 108h1v1h-1zM69 109h2v1h-2zM94 109h1v1h-1zM60 111h3v1h-3zM82 113h1v1h-1zM82 114h1v1h-1zM82 115h1v1h-1zM71 116h1v1h-1zM71 117h1v1h-1z"/><path fill="#d04e0c" d="M54 25h1v1h-1zM56 33h1v1h-1zM56 35h1v1h-1zM57 39h2v1h-2zM57 40h2v1h-2zM54 44h1v1h-1zM54 48h1v1h-1zM52 50h1v1h-1zM52 51h1v1h-1zM54 52h1v1h-1zM54 53h1v1h-1zM50 55h1v1h-1zM50 56h3v1h-3zM50 57h2v1h-2zM50 58h1v1h-1zM49 59h4v1h-4zM49 60h2v1h-2zM48 61h2v1h-2zM51 61h2v1h-2zM49 62h2v1h-2zM46 63h4v1h-4zM45 64h6v1h-6zM46 65h1v1h-1zM46 66h1v1h-1zM45 67h2v1h-2zM45 68h2v1h-2zM45 69h2v1h-2zM43 70h1v1h-1zM47 70h1v1h-1zM44 71h1v1h-1zM47 71h1v1h-1zM47 72h1v1h-1zM47 73h1v1h-1zM36 83h1v1h-1zM47 83h1v1h-1zM49 83h1v1h-1zM49 84h1v1h-1zM45 85h1v1h-1zM42 86h1v1h-1zM46 86h2v1h-2zM46 87h1v1h-1zM37 88h2v1h-2zM44 88h4v1h-4zM38 89h1v1h-1zM44 89h2v1h-2zM47 89h1v1h-1zM50 89h1v1h-1zM40 90h2v1h-2zM43 90h3v1h-3zM51 90h1v1h-1zM54 90h3v1h-3zM40 91h2v1h-2zM43 91h4v1h-4zM55 91h2v1h-2zM40 92h3v1h-3zM46 92h1v1h-1zM52 92h1v1h-1zM54 92h3v1h-3zM58 92h1v1h-1zM44 93h1v1h-1zM46 93h2v1h-2zM49 93h6v1h-6zM56 93h4v1h-4zM46 94h3v1h-3zM50 94h1v1h-1zM52 94h8v1h-8zM48 95h5v1h-5zM54 95h1v1h-1zM56 95h4v1h-4zM49 96h7v1h-7zM57 96h1v1h-1zM76 96h7v1h-7zM84 96h1v1h-1zM88 96h1v1h-1zM91 96h1v1h-1zM54 97h1v1h-1zM56 97h1v1h-1zM78 97h1v1h-1zM55 98h1v1h-1zM88 98h1v1h-1z"/><path fill="#d3560c" d="M55 25h1v1h-1zM55 26h1v1h-1zM56 27h2v1h-2zM59 29h1v1h-1zM58 31h1v1h-1zM56 32h1v1h-1zM58 33h1v1h-1zM56 34h1v1h-1zM57 35h2v1h-2zM56 36h1v1h-1zM56 37h1v1h-1zM59 39h1v1h-1zM59 40h1v1h-1zM55 41h1v1h-1zM58 41h2v1h-2zM57 43h1v1h-1zM55 49h3v1h-3zM54 50h2v1h-2zM55 51h1v1h-1zM52 52h1v1h-1zM55 52h1v1h-1zM55 53h1v1h-1zM52 54h4v1h-4zM60 76h1v1h-1zM89 76h1v1h-1zM54 88h2v1h-2zM97 91h5v1h-5zM93 93h4v1h-4zM92 94h1v1h-1zM75 95h2v1h-2z"/><path fill="#a25c33" d="M66 25h1v1h-1zM70 27h2v1h-2zM76 32h2v1h-2zM80 34h1v1h-1zM80 35h1v1h-1zM89 45h1v1h-1zM53 48h1v1h-1zM89 55h1v1h-1zM96 57h1v1h-1zM47 58h2v1h-2zM55 58h1v1h-1zM55 59h1v1h-1zM55 60h1v1h-1zM55 61h1v1h-1zM44 62h2v1h-2zM55 62h1v1h-1zM44 63h1v1h-1zM55 63h1v1h-1zM44 64h1v1h-1zM55 64h1v1h-1zM55 65h1v1h-1zM55 66h1v1h-1zM55 67h1v1h-1zM39 68h1v1h-1zM55 68h1v1h-1zM39 69h1v1h-1zM55 69h1v1h-1zM56 71h2v1h-2zM85 71h2v1h-2zM89 71h1v1h-1zM89 72h1v1h-1zM27 73h1v1h-1zM59 73h1v1h-1zM88 73h1v1h-1zM90 75h2v1h-2zM63 77h11v1h-11zM92 77h9v1h-9zM37 81h1v1h-1zM34 82h1v1h-1zM41 82h1v1h-1zM38 90h1v1h-1zM60 92h1v1h-1zM43 93h1v1h-1zM60 93h1v1h-1zM71 93h1v1h-1zM43 94h1v1h-1zM73 95h2v1h-2zM60 98h1v1h-1zM77 98h1v1h-1zM89 98h1v1h-1zM77 99h1v1h-1zM68 111h1v1h-1zM92 111h2v1h-2zM67 112h4v1h-4zM92 112h4v1h-4z"/><path fill="#cc5210" d="M54 26h1v1h-1zM71 28h1v1h-1zM54 41h1v1h-1zM55 48h2v1h-2zM54 49h1v1h-1zM51 50h1v1h-1zM51 51h1v1h-1zM51 52h1v1h-1zM51 53h1v1h-1zM49 55h1v1h-1zM51 55h1v1h-1zM49 56h1v1h-1zM49 57h1v1h-1zM49 58h1v1h-1zM51 58h1v1h-1zM80 58h1v1h-1zM80 59h1v1h-1zM51 60h1v1h-1zM80 60h1v1h-1zM80 61h1v1h-1zM46 62h1v1h-1zM80 62h1v1h-1zM80 63h1v1h-1zM44 65h1v1h-1zM80 65h1v1h-1zM42 70h1v1h-1zM46 70h1v1h-1zM80 70h1v1h-1zM56 72h2v1h-2zM85 72h2v1h-2zM58 73h1v1h-1zM87 73h1v1h-1zM58 74h2v1h-2zM60 75h2v1h-2zM89 75h1v1h-1zM90 76h2v1h-2zM80 80h1v1h-1zM35 81h2v1h-2zM80 81h1v1h-1zM35 82h6v1h-6zM33 83h1v1h-1zM42 83h5v1h-5zM34 84h2v1h-2zM39 90h1v1h-1zM39 91h1v1h-1zM60 91h1v1h-1zM65 91h6v1h-6zM39 92h1v1h-1zM101 92h1v1h-1zM60 94h1v1h-1zM47 95h1v1h-1zM60 95h1v1h-1zM47 96h1v1h-1zM60 96h1v1h-1zM75 96h1v1h-1zM93 96h4v1h-4zM60 97h1v1h-1zM75 97h2v1h-2zM54 98h1v1h-1zM57 98h1v1h-1z"/><path fill="#f47b09" d="M56 26h1v1h-1zM64 26h1v1h-1zM79 35h1v1h-1zM60 36h1v1h-1zM60 37h1v1h-1zM69 38h1v1h-1zM64 39h1v1h-1zM82 39h1v1h-1zM60 42h1v1h-1zM59 43h1v1h-1zM60 44h1v1h-1zM71 44h1v1h-1zM72 45h1v1h-1zM58 46h2v1h-2zM73 46h1v1h-1zM59 47h1v1h-1zM63 48h1v1h-1zM71 49h1v1h-1zM91 50h1v1h-1zM90 51h1v1h-1zM59 52h1v1h-1zM86 55h1v1h-1zM82 56h1v1h-1zM84 56h1v1h-1zM86 56h1v1h-1zM77 79h1v1h-1zM55 87h1v1h-1zM60 89h1v1h-1zM64 90h2v1h-2zM79 90h1v1h-1zM95 90h1v1h-1zM88 92h1v1h-1zM77 94h2v1h-2z"/><path fill="#200003" d="M67 26h1v1h-1zM54 27h1v1h-1zM76 31h1v1h-1zM87 41h1v1h-1zM87 42h1v1h-1zM87 43h1v1h-1zM75 54h1v1h-1zM87 56h1v1h-1zM42 65h1v1h-1zM41 66h1v1h-1zM41 67h1v1h-1zM57 70h1v1h-1zM78 70h2v1h-2zM40 71h1v1h-1zM32 73h1v1h-1zM46 73h1v1h-1zM75 73h1v1h-1zM39 74h2v1h-2zM104 74h1v1h-1zM33 78h1v1h-1zM109 78h1v1h-1zM23 80h1v1h-1zM78 80h1v1h-1zM87 80h1v1h-1zM87 81h1v1h-1zM22 83h1v1h-1zM103 84h1v1h-1zM104 91h2v1h-2zM70 92h1v1h-1zM42 93h1v1h-1zM63 93h2v1h-2zM70 93h1v1h-1zM101 94h1v1h-1zM74 96h1v1h-1zM93 101h1v1h-1zM93 102h1v1h-1zM93 103h1v1h-1zM93 104h1v1h-1zM71 107h1v1h-1z"/><path fill="#7c3719" d="M55 27h1v1h-1zM62 51h1v1h-1zM62 52h1v1h-1zM56 57h2v1h-2zM79 57h1v1h-1zM46 59h1v1h-1zM46 60h1v1h-1zM46 61h1v1h-1zM43 71h1v1h-1zM46 72h1v1h-1zM62 76h1v1h-1zM43 77h1v1h-1zM48 77h1v1h-1zM48 78h1v1h-1zM48 79h1v1h-1zM47 80h2v1h-2zM102 83h1v1h-1zM102 84h1v1h-1zM36 86h1v1h-1zM36 87h1v1h-1zM36 88h1v1h-1zM36 89h1v1h-1zM103 91h1v1h-1zM63 95h1v1h-1zM67 95h1v1h-1zM53 97h1v1h-1zM92 97h1v1h-1zM71 112h1v1h-1z"/><path fill="#d04f0b" d="M56 28h2v1h-2zM56 29h3v1h-3zM56 30h4v1h-4zM56 31h2v1h-2zM59 31h1v1h-1zM57 32h3v1h-3zM57 33h1v1h-1zM59 33h1v1h-1zM57 34h3v1h-3zM59 35h1v1h-1zM57 36h3v1h-3zM57 37h3v1h-3zM56 38h4v1h-4zM56 39h1v1h-1zM56 40h1v1h-1zM56 41h2v1h-2zM54 42h4v1h-4zM54 43h3v1h-3zM55 44h3v1h-3zM54 45h4v1h-4zM54 46h4v1h-4zM54 47h4v1h-4zM57 48h1v1h-1zM53 50h1v1h-1zM53 51h2v1h-2zM53 52h1v1h-1zM52 53h2v1h-2zM51 54h1v1h-1zM52 55h1v1h-1zM52 57h1v1h-1zM52 58h1v1h-1zM48 59h1v1h-1zM48 60h1v1h-1zM52 60h1v1h-1zM47 61h1v1h-1zM50 61h1v1h-1zM47 62h2v1h-2zM45 63h1v1h-1zM50 63h1v1h-1zM45 65h1v1h-1zM47 65h4v1h-4zM44 66h2v1h-2zM47 66h2v1h-2zM44 67h1v1h-1zM47 67h2v1h-2zM44 68h1v1h-1zM47 68h2v1h-2zM44 69h1v1h-1zM47 69h2v1h-2zM45 70h1v1h-1zM48 70h1v1h-1zM45 71h1v1h-1zM48 71h1v1h-1zM48 72h1v1h-1zM48 73h1v1h-1zM87 74h2v1h-2zM35 83h1v1h-1zM37 83h5v1h-5zM48 83h1v1h-1zM50 83h1v1h-1zM36 84h13v1h-13zM50 84h1v1h-1zM37 85h8v1h-8zM46 85h7v1h-7zM37 86h5v1h-5zM43 86h3v1h-3zM48 86h5v1h-5zM37 87h9v1h-9zM47 87h6v1h-6zM39 88h5v1h-5zM48 88h6v1h-6zM39 89h5v1h-5zM46 89h1v1h-1zM48 89h2v1h-2zM51 89h7v1h-7zM42 90h1v1h-1zM46 90h5v1h-5zM52 90h2v1h-2zM57 90h1v1h-1zM42 91h1v1h-1zM47 91h8v1h-8zM57 91h3v1h-3zM102 91h1v1h-1zM44 92h2v1h-2zM47 92h5v1h-5zM53 92h1v1h-1zM57 92h1v1h-1zM59 92h1v1h-1zM97 92h1v1h-1zM45 93h1v1h-1zM48 93h1v1h-1zM55 93h1v1h-1zM49 94h1v1h-1zM51 94h1v1h-1zM53 95h1v1h-1zM55 95h1v1h-1zM77 95h15v1h-15zM48 96h1v1h-1zM56 96h1v1h-1zM59 96h1v1h-1zM55 97h1v1h-1zM57 97h3v1h-3zM88 99h1v1h-1z"/><path fill="#f37d0c" d="M58 28h1v1h-1zM65 31h1v1h-1zM71 31h1v1h-1zM71 32h1v1h-1zM80 37h1v1h-1zM70 38h1v1h-1zM72 38h1v1h-1zM73 39h1v1h-1zM76 41h1v1h-1zM58 43h1v1h-1zM58 44h1v1h-1zM61 50h1v1h-1zM74 50h1v1h-1zM74 52h1v1h-1zM91 52h1v1h-1zM58 53h2v1h-2zM58 54h1v1h-1zM54 55h1v1h-1zM57 56h1v1h-1zM54 58h1v1h-1zM54 59h1v1h-1zM51 62h3v1h-3zM50 66h1v1h-1zM43 67h1v1h-1zM43 69h1v1h-1zM54 71h1v1h-1zM56 73h1v1h-1zM58 75h2v1h-2zM59 76h1v1h-1zM49 77h1v1h-1zM49 78h1v1h-1zM49 80h1v1h-1zM49 81h1v1h-1zM51 83h1v1h-1z"/><path fill="#e6b78c" d="M65 29h2v1h-2zM65 30h2v1h-2zM69 33h3v1h-3zM69 34h4v1h-4zM69 35h5v1h-5zM72 36h4v1h-4zM72 37h4v1h-4zM74 38h6v1h-6zM74 39h6v1h-6zM76 40h4v1h-4zM81 41h2v1h-2zM81 42h2v1h-2zM93 50h1v1h-1zM62 53h1v1h-1zM73 53h1v1h-1zM73 54h1v1h-1zM89 56h1v1h-1zM87 57h2v1h-2zM76 59h1v1h-1zM103 59h1v1h-1zM105 60h1v1h-1zM105 62h1v1h-1zM105 63h1v1h-1zM105 64h1v1h-1zM105 65h1v1h-1zM105 66h1v1h-1zM105 67h1v1h-1zM62 73h1v1h-1zM73 73h1v1h-1zM62 74h1v1h-1zM73 74h1v1h-1z"/><path fill="#ed750e" d="M73 30h1v1h-1zM58 42h2v1h-2zM90 46h1v1h-1zM91 51h1v1h-1zM53 55h1v1h-1zM53 56h1v1h-1zM53 57h1v1h-1zM80 57h1v1h-1zM84 57h1v1h-1zM53 58h1v1h-1zM53 59h1v1h-1zM53 60h1v1h-1zM84 60h1v1h-1zM53 61h1v1h-1zM49 66h1v1h-1zM41 69h2v1h-2zM84 72h1v1h-1zM60 77h2v1h-2zM89 77h2v1h-2zM100 80h1v1h-1zM82 81h5v1h-5zM100 81h1v1h-1zM78 82h2v1h-2zM53 85h1v1h-1zM103 85h1v1h-1zM53 86h1v1h-1zM53 87h1v1h-1zM56 88h2v1h-2zM58 90h5v1h-5zM73 93h1v1h-1zM92 93h1v1h-1z"/><path fill="#f47c07" d="M66 31h1v1h-1zM68 33h1v1h-1zM75 33h1v1h-1zM60 34h1v1h-1zM68 34h1v1h-1zM60 35h1v1h-1zM69 36h1v1h-1zM64 37h1v1h-1zM68 37h1v1h-1zM62 38h1v1h-1zM64 38h1v1h-1zM66 38h1v1h-1zM68 38h1v1h-1zM61 39h3v1h-3zM66 39h3v1h-3zM81 39h1v1h-1zM61 40h9v1h-9zM61 41h8v1h-8zM61 42h7v1h-7zM69 42h1v1h-1zM84 42h1v1h-1zM61 43h1v1h-1zM63 43h6v1h-6zM70 43h1v1h-1zM72 43h3v1h-3zM61 44h10v1h-10zM72 44h2v1h-2zM75 44h1v1h-1zM61 45h11v1h-11zM73 45h2v1h-2zM60 46h9v1h-9zM70 46h1v1h-1zM61 47h7v1h-7zM59 48h2v1h-2zM77 48h1v1h-1zM59 49h2v1h-2zM63 49h1v1h-1zM75 52h1v1h-1zM52 75h1v1h-1zM57 76h1v1h-1zM88 76h1v1h-1zM51 77h1v1h-1zM50 78h1v1h-1zM52 78h1v1h-1zM51 79h4v1h-4zM56 79h2v1h-2zM50 80h9v1h-9zM77 80h1v1h-1zM53 81h2v1h-2zM56 81h3v1h-3zM53 82h2v1h-2zM57 82h2v1h-2zM60 82h1v1h-1zM57 83h1v1h-1zM59 83h1v1h-1zM57 84h2v1h-2zM79 84h1v1h-1zM55 85h1v1h-1zM59 85h2v1h-2z"/><path fill="#f0790a" d="M81 36h1v1h-1zM90 47h1v1h-1zM61 52h1v1h-1zM77 54h1v1h-1zM88 54h1v1h-1zM84 58h1v1h-1zM82 59h2v1h-2zM81 61h1v1h-1zM51 63h1v1h-1zM81 66h1v1h-1zM81 68h2v1h-2zM81 70h2v1h-2zM78 73h1v1h-1zM84 73h1v1h-1zM77 74h1v1h-1zM87 75h2v1h-2zM100 82h1v1h-1zM103 86h1v1h-1zM59 89h1v1h-1zM63 90h1v1h-1zM102 90h1v1h-1zM88 94h2v1h-2z"/><path fill="#d04c0b" d="M55 40h1v1h-1zM47 59h1v1h-1zM47 60h1v1h-1zM44 70h1v1h-1zM46 71h1v1h-1zM61 76h1v1h-1zM34 83h1v1h-1zM37 89h1v1h-1zM43 92h1v1h-1zM98 92h3v1h-3zM102 92h1v1h-1zM97 93h4v1h-4zM44 94h2v1h-2zM93 94h8v1h-8zM92 95h5v1h-5zM58 96h1v1h-1zM83 96h1v1h-1zM85 96h3v1h-3zM89 96h2v1h-2zM92 96h1v1h-1zM77 97h1v1h-1zM79 97h13v1h-13zM56 98h1v1h-1zM58 98h2v1h-2zM78 98h10v1h-10zM78 99h10v1h-10z"/><path fill="#f47c05" d="M75 42h1v1h-1zM74 51h1v1h-1zM51 75h1v1h-1zM51 76h1v1h-1zM50 79h1v1h-1zM50 81h3v1h-3zM54 86h1v1h-1z"/><path fill="#f9f4dd" d="M63 53h1v1h-1zM66 53h2v1h-2zM69 53h1v1h-1zM71 53h1v1h-1zM94 53h8v1h-8zM92 54h1v1h-1zM102 54h1v1h-1zM61 55h1v1h-1zM74 55h1v1h-1zM91 55h2v1h-2zM94 55h1v1h-1zM97 55h5v1h-5zM60 56h1v1h-1zM66 56h2v1h-2zM91 56h1v1h-1zM93 56h3v1h-3zM98 56h1v1h-1zM66 57h3v1h-3zM92 57h4v1h-4zM104 57h1v1h-1zM58 58h2v1h-2zM91 58h2v1h-2zM89 59h1v1h-1zM91 59h1v1h-1zM93 59h1v1h-1zM64 60h1v1h-1zM91 60h1v1h-1zM88 61h4v1h-4zM88 62h4v1h-4zM61 63h1v1h-1zM89 63h1v1h-1zM62 64h1v1h-1zM64 64h1v1h-1zM91 64h1v1h-1zM61 65h5v1h-5zM88 65h2v1h-2zM91 65h2v1h-2zM61 66h4v1h-4zM88 66h4v1h-4zM61 67h4v1h-4zM88 67h5v1h-5zM62 68h4v1h-4zM88 68h5v1h-5zM61 69h4v1h-4zM89 69h4v1h-4zM95 69h1v1h-1zM103 69h1v1h-1zM64 70h1v1h-1zM90 70h5v1h-5zM103 70h1v1h-1zM106 70h1v1h-1zM60 71h1v1h-1zM69 71h1v1h-1zM72 71h1v1h-1zM74 71h1v1h-1zM90 71h1v1h-1zM93 71h2v1h-2zM97 71h2v1h-2zM100 71h1v1h-1zM90 72h1v1h-1zM93 72h1v1h-1zM102 72h2v1h-2z"/><path fill="#f9f4dd" d="M64 53h1v1h-1zM68 53h1v1h-1zM71 54h2v1h-2zM64 55h1v1h-1zM71 55h2v1h-2zM75 55h1v1h-1zM90 55h1v1h-1zM102 55h1v1h-1zM104 55h1v1h-1zM68 56h1v1h-1zM70 56h1v1h-1zM72 56h1v1h-1zM75 56h1v1h-1zM97 56h1v1h-1zM103 56h1v1h-1zM66 58h2v1h-2zM88 58h1v1h-1zM93 58h3v1h-3zM106 58h2v1h-2zM58 59h1v1h-1zM66 59h1v1h-1zM61 60h2v1h-2zM93 60h1v1h-1zM58 61h1v1h-1zM58 62h1v1h-1zM93 62h1v1h-1zM88 63h1v1h-1zM88 64h1v1h-1zM58 65h1v1h-1zM93 65h1v1h-1zM60 66h1v1h-1zM59 67h2v1h-2zM58 69h1v1h-1zM88 69h1v1h-1zM59 70h1v1h-1zM88 70h1v1h-1zM104 70h1v1h-1zM68 71h1v1h-1zM71 71h1v1h-1zM73 71h1v1h-1zM75 71h1v1h-1zM103 71h2v1h-2zM68 72h2v1h-2zM92 72h1v1h-1zM97 72h5v1h-5zM67 73h3v1h-3zM95 73h1v1h-1zM71 74h1v1h-1zM92 74h1v1h-1zM95 74h4v1h-4z"/><path fill="#f9f4dd" d="M65 53h1v1h-1zM93 53h1v1h-1zM63 54h1v1h-1zM93 54h4v1h-4zM63 55h1v1h-1zM95 55h2v1h-2zM103 55h1v1h-1zM99 56h1v1h-1zM104 56h1v1h-1zM90 57h2v1h-2zM60 58h1v1h-1zM64 58h1v1h-1zM89 58h1v1h-1zM104 58h1v1h-1zM60 59h1v1h-1zM87 59h1v1h-1zM90 59h1v1h-1zM90 60h1v1h-1zM59 61h1v1h-1zM93 61h1v1h-1zM92 63h1v1h-1zM93 64h1v1h-1zM90 65h1v1h-1zM92 66h2v1h-2zM93 67h1v1h-1zM66 69h2v1h-2zM94 69h1v1h-1zM58 70h1v1h-1zM76 70h1v1h-1zM107 70h1v1h-1zM61 71h1v1h-1zM99 71h1v1h-1zM101 71h2v1h-2zM66 72h2v1h-2zM71 72h2v1h-2zM96 72h1v1h-1zM65 73h1v1h-1zM92 73h2v1h-2zM96 73h6v1h-6z"/><path fill="#f9f4dd" d="M70 53h1v1h-1zM72 53h1v1h-1zM64 54h6v1h-6zM97 54h5v1h-5zM65 55h6v1h-6zM93 55h1v1h-1zM61 56h5v1h-5zM90 56h1v1h-1zM92 56h1v1h-1zM61 57h5v1h-5zM61 58h3v1h-3zM65 58h1v1h-1zM90 58h1v1h-1zM59 59h1v1h-1zM61 59h5v1h-5zM88 59h1v1h-1zM92 59h1v1h-1zM59 60h2v1h-2zM63 60h1v1h-1zM65 60h1v1h-1zM88 60h2v1h-2zM92 60h1v1h-1zM61 61h5v1h-5zM92 61h1v1h-1zM59 62h7v1h-7zM92 62h1v1h-1zM59 63h2v1h-2zM62 63h4v1h-4zM90 63h2v1h-2zM59 64h3v1h-3zM63 64h1v1h-1zM65 64h1v1h-1zM89 64h2v1h-2zM92 64h1v1h-1zM59 65h2v1h-2zM58 66h2v1h-2zM65 66h1v1h-1zM65 67h1v1h-1zM59 68h3v1h-3zM59 69h2v1h-2zM65 69h1v1h-1zM61 70h3v1h-3zM65 70h3v1h-3zM95 70h1v1h-1zM62 71h6v1h-6zM91 71h2v1h-2zM95 71h1v1h-1zM63 72h3v1h-3zM94 72h2v1h-2zM94 73h1v1h-1z"/><path fill="#000000" d="M91 53h1v1h-1zM103 53h1v1h-1z"/><path fill="#f9f4dd" d="M92 53h1v1h-1zM102 53h1v1h-1zM62 54h1v1h-1zM70 54h1v1h-1zM60 55h1v1h-1zM62 55h1v1h-1zM73 55h1v1h-1zM69 56h1v1h-1zM71 56h1v1h-1zM73 56h2v1h-2zM96 56h1v1h-1zM100 56h3v1h-3zM58 57h3v1h-3zM76 57h2v1h-2zM89 57h1v1h-1zM103 57h1v1h-1zM105 57h3v1h-3zM68 58h1v1h-1zM76 58h2v1h-2zM87 58h1v1h-1zM103 58h1v1h-1zM105 58h1v1h-1zM67 59h2v1h-2zM77 59h1v1h-1zM94 59h2v1h-2zM104 59h4v1h-4zM58 60h1v1h-1zM66 60h1v1h-1zM74 60h2v1h-2zM87 60h1v1h-1zM101 60h2v1h-2zM106 60h2v1h-2zM60 61h1v1h-1zM66 61h1v1h-1zM74 61h2v1h-2zM87 61h1v1h-1zM101 61h2v1h-2zM105 61h3v1h-3zM66 62h1v1h-1zM74 62h2v1h-2zM87 62h1v1h-1zM101 62h2v1h-2zM106 62h2v1h-2zM58 63h1v1h-1zM66 63h1v1h-1zM74 63h2v1h-2zM87 63h1v1h-1zM93 63h1v1h-1zM101 63h2v1h-2zM106 63h2v1h-2zM58 64h1v1h-1zM66 64h1v1h-1zM87 64h1v1h-1zM106 64h2v1h-2zM66 65h1v1h-1zM87 65h1v1h-1zM106 65h2v1h-2zM66 66h1v1h-1zM87 66h1v1h-1zM106 66h2v1h-2zM58 67h1v1h-1zM66 67h1v1h-1zM87 67h1v1h-1zM106 67h2v1h-2zM58 68h1v1h-1zM66 68h1v1h-1zM87 68h1v1h-1zM93 68h1v1h-1zM105 68h3v1h-3zM68 69h1v1h-1zM76 69h2v1h-2zM87 69h1v1h-1zM93 69h1v1h-1zM104 69h4v1h-4zM60 70h1v1h-1zM68 70h1v1h-1zM77 70h1v1h-1zM87 70h1v1h-1zM89 70h1v1h-1zM105 70h1v1h-1zM70 71h1v1h-1zM96 71h1v1h-1zM60 72h3v1h-3zM70 72h1v1h-1zM73 72h3v1h-3zM91 72h1v1h-1zM104 72h1v1h-1zM63 73h2v1h-2zM66 73h1v1h-1zM70 73h3v1h-3zM102 73h1v1h-1zM63 74h8v1h-8zM72 74h1v1h-1zM93 74h2v1h-2zM99 74h4v1h-4z"/><path fill="#763b1f" d="M108 73h1v1h-1zM34 74h1v1h-1zM37 74h1v1h-1zM106 74h5v1h-5zM30 75h5v1h-5zM36 75h8v1h-8zM106 75h6v1h-6zM113 75h2v1h-2zM30 76h6v1h-6zM37 76h5v1h-5zM43 76h1v1h-1zM105 76h2v1h-2zM108 76h5v1h-5zM114 76h1v1h-1zM30 77h2v1h-2zM34 77h1v1h-1zM38 77h4v1h-4zM46 77h1v1h-1zM109 77h1v1h-1zM112 77h1v1h-1zM114 77h1v1h-1zM25 78h1v1h-1zM29 78h1v1h-1zM31 78h1v1h-1zM46 78h2v1h-2zM112 78h1v1h-1zM26 79h2v1h-2zM114 79h1v1h-1zM117 79h1v1h-1zM27 80h1v1h-1zM25 81h1v1h-1zM29 81h1v1h-1zM24 82h1v1h-1zM23 83h2v1h-2zM26 83h1v1h-1zM23 84h1v1h-1zM27 85h3v1h-3zM24 86h1v1h-1zM29 86h1v1h-1zM29 87h1v1h-1zM66 95h1v1h-1zM65 96h4v1h-4zM64 97h3v1h-3zM69 97h1v1h-1zM67 98h3v1h-3zM68 99h1v1h-1zM70 100h2v1h-2zM73 101h1v1h-1zM96 101h2v1h-2zM94 102h1v1h-1zM96 102h2v1h-2zM69 103h1v1h-1zM72 103h1v1h-1zM97 103h1v1h-1zM69 104h1v1h-1zM72 104h1v1h-1zM69 105h1v1h-1zM96 106h1v1h-1zM94 107h1v1h-1zM92 109h1v1h-1zM66 110h2v1h-2zM88 110h1v1h-1zM64 111h2v1h-2zM88 111h1v1h-1zM90 111h2v1h-2zM61 112h1v1h-1zM63 112h1v1h-1zM65 112h1v1h-1zM90 112h1v1h-1zM61 113h3v1h-3zM65 113h2v1h-2zM90 113h2v1h-2zM96 113h1v1h-1zM59 114h5v1h-5zM66 114h3v1h-3zM83 114h1v1h-1zM95 114h1v1h-1zM59 115h5v1h-5zM66 115h3v1h-3zM70 115h1v1h-1zM89 115h2v1h-2zM59 116h5v1h-5zM65 116h4v1h-4zM89 116h3v1h-3z"/><path fill="#7a3a1e" d="M35 75h1v1h-1zM112 75h1v1h-1zM42 76h1v1h-1zM113 76h1v1h-1zM42 77h1v1h-1zM44 77h2v1h-2zM47 77h1v1h-1zM110 77h2v1h-2zM113 77h1v1h-1zM45 78h1v1h-1zM113 78h2v1h-2zM116 78h1v1h-1zM45 79h3v1h-3zM112 79h2v1h-2zM115 79h2v1h-2zM117 80h2v1h-2zM118 81h1v1h-1zM28 82h1v1h-1zM117 82h2v1h-2zM28 83h1v1h-1zM115 83h2v1h-2zM118 83h1v1h-1zM115 84h1v1h-1zM119 84h1v1h-1zM115 85h1v1h-1zM118 85h3v1h-3zM25 86h1v1h-1zM113 86h2v1h-2zM116 86h3v1h-3zM25 87h1v1h-1zM28 87h1v1h-1zM24 88h3v1h-3zM61 94h7v1h-7zM61 95h2v1h-2zM64 95h2v1h-2zM61 96h4v1h-4zM67 97h2v1h-2zM69 99h3v1h-3zM69 100h1v1h-1zM77 100h1v1h-1zM69 101h4v1h-4zM94 101h2v1h-2zM69 102h5v1h-5zM95 102h1v1h-1zM98 102h1v1h-1zM70 103h2v1h-2zM73 103h1v1h-1zM94 103h3v1h-3zM98 103h1v1h-1zM70 104h2v1h-2zM95 104h2v1h-2zM70 105h2v1h-2zM94 105h3v1h-3zM68 106h4v1h-4zM68 107h2v1h-2zM93 107h1v1h-1zM66 108h4v1h-4zM91 108h4v1h-4zM66 109h2v1h-2zM90 109h2v1h-2zM89 110h4v1h-4zM66 111h1v1h-1zM89 111h1v1h-1zM62 112h1v1h-1zM64 112h1v1h-1zM66 112h1v1h-1zM86 112h4v1h-4zM91 112h1v1h-1zM64 113h1v1h-1zM68 113h4v1h-4zM85 113h5v1h-5zM92 113h4v1h-4zM64 114h2v1h-2zM70 114h1v1h-1zM84 114h11v1h-11zM96 114h1v1h-1zM64 115h2v1h-2zM83 115h6v1h-6zM91 115h5v1h-5zM64 116h1v1h-1zM83 116h6v1h-6zM92 116h3v1h-3z"/></svg>
