<svg xmlns="http://www.w3.org/2000/svg" width="20" height="20" viewBox="0 0 20 20" shape-rendering="crispEdges"><title>BRISIN lighthouse_lamp_on</title><path fill="#986542" d="M3 4h1v1h-1zM15 4h1v1h-1zM3 5h1v1h-1zM15 5h1v1h-1zM15 6h1v1h-1zM15 14h1v1h-1zM15 15h1v1h-1zM15 16h1v1h-1z"/><path fill="#e8d17f" d="M4 4h10v1h-10zM16 4h1v1h-1zM4 5h10v1h-10zM16 5h1v1h-1zM4 6h11v1h-11zM16 6h1v1h-1zM3 7h12v1h-12zM16 7h1v1h-1zM3 8h12v1h-12zM16 8h1v1h-1zM3 9h12v1h-12zM16 9h1v1h-1zM3 10h12v1h-12zM16 10h1v1h-1zM3 11h12v1h-12zM16 11h1v1h-1zM3 12h12v1h-12zM16 12h1v1h-1zM3 13h12v1h-12zM16 13h1v1h-1zM4 14h11v1h-11zM16 14h1v1h-1zM4 15h11v1h-11zM16 15h1v1h-1zM5 16h9v1h-9zM16 16h1v1h-1z"/><path fill="#b59062" d="M14 4h1v1h-1zM14 5h1v1h-1zM3 6h1v1h-1zM15 7h1v1h-1zM15 8h1v1h-1zM15 9h1v1h-1zM15 10h1v1h-1zM15 11h1v1h-1zM15 12h1v1h-1zM15 13h1v1h-1zM3 14h1v1h-1zM3 15h1v1h-1zM3 16h2v1h-2zM14 16h1v1h-1z"/></svg>