<svg xmlns="http://www.w3.org/2000/svg" width="80" height="80" viewBox="0 0 80 80" shape-rendering="crispEdges"><path fill="#391612" d="M35 11h5v1h-5zM41 11h5v1h-5zM31 12h2v1h-2zM46 12h4v1h-4zM29 13h1v1h-1zM46 13h1v1h-1zM48 13h4v1h-4zM27 14h1v1h-1zM31 14h9v1h-9zM50 14h4v1h-4zM25 15h2v1h-2zM31 15h9v1h-9zM51 15h5v1h-5zM27 16h19v1h-19zM55 16h2v1h-2zM22 17h3v1h-3zM27 17h19v1h-19zM55 17h4v1h-4zM21 18h29v1h-29zM57 18h3v1h-3zM22 19h28v1h-28zM57 19h4v1h-4zM21 20h14v1h-14zM42 20h8v1h-8zM57 20h5v1h-5zM18 21h1v1h-1zM21 21h13v1h-13zM42 21h8v1h-8zM58 21h5v1h-5zM17 22h13v1h-13zM32 22h1v1h-1zM46 22h8v1h-8zM59 22h5v1h-5zM18 23h13v1h-13zM48 23h6v1h-6zM59 23h5v1h-5zM18 24h9v1h-9zM50 24h4v1h-4zM61 24h4v1h-4zM15 25h1v1h-1zM18 25h9v1h-9zM50 25h4v1h-4zM61 25h5v1h-5zM16 26h8v1h-8zM35 26h9v1h-9zM53 26h3v1h-3zM61 26h3v1h-3zM14 27h1v1h-1zM16 27h7v1h-7zM35 27h9v1h-9zM53 27h3v1h-3zM61 27h3v1h-3zM66 27h1v1h-1zM14 28h8v1h-8zM30 28h18v1h-18zM53 28h4v1h-4zM61 28h3v1h-3zM13 29h9v1h-9zM30 29h18v1h-18zM53 29h4v1h-4zM62 29h2v1h-2zM67 29h1v1h-1zM13 30h8v1h-8zM27 30h24v1h-24zM55 30h4v1h-4zM63 30h2v1h-2zM12 31h9v1h-9zM27 31h24v1h-24zM55 31h4v1h-4zM63 31h3v1h-3zM68 31h1v1h-1zM12 32h9v1h-9zM25 32h6v1h-6zM33 32h18v1h-18zM57 32h2v1h-2zM63 32h3v1h-3zM68 32h1v1h-1zM12 33h8v1h-8zM25 33h6v1h-6zM33 33h18v1h-18zM57 33h2v1h-2zM63 33h2v1h-2zM68 33h1v1h-1zM12 34h6v1h-6zM24 34h3v1h-3zM33 34h19v1h-19zM57 34h8v1h-8zM68 34h1v1h-1zM11 35h7v1h-7zM24 35h3v1h-3zM33 35h19v1h-19zM57 35h8v1h-8zM68 35h2v1h-2zM11 36h7v1h-7zM23 36h4v1h-4zM31 36h21v1h-21zM57 36h8v1h-8zM69 36h1v1h-1zM11 37h7v1h-7zM23 37h4v1h-4zM31 37h21v1h-21zM57 37h10v1h-10zM69 37h1v1h-1zM11 38h1v1h-1zM13 38h3v1h-3zM21 38h4v1h-4zM29 38h10v1h-10zM42 38h10v1h-10zM57 38h13v1h-13zM11 39h1v1h-1zM13 39h3v1h-3zM21 39h4v1h-4zM29 39h10v1h-10zM42 39h10v1h-10zM57 39h13v1h-13zM13 40h3v1h-3zM21 40h4v1h-4zM29 40h23v1h-23zM56 40h14v1h-14zM11 41h5v1h-5zM21 41h4v1h-4zM29 41h23v1h-23zM55 41h15v1h-15zM11 42h5v1h-5zM21 42h4v1h-4zM29 42h21v1h-21zM55 42h9v1h-9zM68 42h2v1h-2zM11 43h5v1h-5zM21 43h4v1h-4zM29 43h7v1h-7zM38 43h13v1h-13zM55 43h9v1h-9zM68 43h2v1h-2zM11 44h5v1h-5zM21 44h4v1h-4zM29 44h8v1h-8zM38 44h13v1h-13zM55 44h9v1h-9zM68 44h2v1h-2zM11 45h5v1h-5zM21 45h4v1h-4zM29 45h9v1h-9zM40 45h13v1h-13zM54 45h9v1h-9zM67 45h3v1h-3zM12 46h4v1h-4zM21 46h4v1h-4zM29 46h9v1h-9zM40 46h9v1h-9zM55 46h8v1h-8zM65 46h4v1h-4zM12 47h4v1h-4zM21 47h1v1h-1zM31 47h9v1h-9zM43 47h3v1h-3zM50 47h11v1h-11zM66 47h3v1h-3zM12 48h4v1h-4zM21 48h1v1h-1zM31 48h9v1h-9zM43 48h3v1h-3zM51 48h10v1h-10zM65 48h4v1h-4zM12 49h6v1h-6zM21 49h3v1h-3zM31 49h12v1h-12zM48 49h11v1h-11zM64 49h5v1h-5zM13 50h5v1h-5zM21 50h4v1h-4zM31 50h12v1h-12zM48 50h11v1h-11zM63 50h5v1h-5zM13 51h1v1h-1zM15 51h3v1h-3zM21 51h5v1h-5zM33 51h24v1h-24zM58 51h1v1h-1zM63 51h5v1h-5zM15 52h3v1h-3zM21 52h5v1h-5zM33 52h24v1h-24zM63 52h4v1h-4zM14 53h6v1h-6zM22 53h3v1h-3zM29 53h1v1h-1zM34 53h20v1h-20zM61 53h6v1h-6zM15 54h5v1h-5zM22 54h3v1h-3zM34 54h21v1h-21zM61 54h5v1h-5zM15 55h6v1h-6zM22 55h5v1h-5zM36 55h14v1h-14zM59 55h7v1h-7zM16 56h5v1h-5zM22 56h5v1h-5zM30 56h1v1h-1zM36 56h12v1h-12zM49 56h1v1h-1zM59 56h6v1h-6zM17 57h4v1h-4zM24 57h3v1h-3zM29 57h2v1h-2zM40 57h1v1h-1zM42 57h6v1h-6zM55 57h9v1h-9zM17 58h5v1h-5zM25 58h6v1h-6zM40 58h1v1h-1zM42 58h6v1h-6zM55 58h9v1h-9zM18 59h4v1h-4zM25 59h8v1h-8zM43 59h20v1h-20zM19 60h3v1h-3zM25 60h8v1h-8zM43 60h3v1h-3zM51 60h11v1h-11zM20 61h5v1h-5zM27 61h6v1h-6zM34 61h1v1h-1zM58 61h3v1h-3zM21 62h4v1h-4zM27 62h8v1h-8zM55 62h5v1h-5zM22 63h3v1h-3zM27 63h13v1h-13zM52 63h7v1h-7zM24 64h16v1h-16zM51 64h6v1h-6zM25 65h15v1h-15zM43 65h4v1h-4zM48 65h8v1h-8zM27 66h3v1h-3zM32 66h8v1h-8zM43 66h11v1h-11zM29 67h1v1h-1zM32 67h20v1h-20zM31 68h19v1h-19zM35 69h11v1h-11z"/><path fill="#564133" d="M40 11h1v1h-1zM51 18h2v1h-2zM51 19h1v1h-1zM29 24h2v1h-2zM40 24h1v1h-1zM29 25h2v1h-2zM28 35h1v1h-1zM12 38h1v1h-1zM12 39h1v1h-1zM51 43h2v1h-2zM51 44h2v1h-2zM29 52h2v1h-2zM48 57h2v1h-2zM38 59h1v1h-1zM38 60h1v1h-1zM40 61h2v1h-2zM41 62h1v1h-1zM30 67h2v1h-2z"/><path fill="#391612" d="M33 12h4v1h-4zM32 13h5v1h-5zM49 14h1v1h-1zM30 15h1v1h-1zM50 15h1v1h-1zM25 16h1v1h-1zM53 16h1v1h-1zM48 17h2v1h-2zM54 17h1v1h-1zM56 19h1v1h-1zM20 20h1v1h-1zM40 21h1v1h-1zM57 21h1v1h-1zM30 22h2v1h-2zM17 23h1v1h-1zM31 23h1v1h-1zM16 24h2v1h-2zM59 24h2v1h-2zM16 25h2v1h-2zM28 25h1v1h-1zM42 25h1v1h-1zM59 25h2v1h-2zM59 26h1v1h-1zM30 27h2v1h-2zM51 27h1v1h-1zM56 27h1v1h-1zM22 28h1v1h-1zM51 28h1v1h-1zM64 28h1v1h-1zM22 29h1v1h-1zM51 29h1v1h-1zM61 29h1v1h-1zM21 31h1v1h-1zM21 32h1v1h-1zM32 33h1v1h-1zM56 33h1v1h-1zM65 33h1v1h-1zM67 33h1v1h-1zM31 34h2v1h-2zM52 34h1v1h-1zM67 34h1v1h-1zM31 35h1v1h-1zM65 35h2v1h-2zM18 37h1v1h-1zM52 37h1v1h-1zM17 38h1v1h-1zM52 38h1v1h-1zM16 39h2v1h-2zM52 39h1v1h-1zM16 40h2v1h-2zM16 41h2v1h-2zM16 42h2v1h-2zM27 42h1v1h-1zM50 42h1v1h-1zM16 43h2v1h-2zM25 43h3v1h-3zM64 43h1v1h-1zM16 44h2v1h-2zM25 44h1v1h-1zM37 44h1v1h-1zM64 44h1v1h-1zM67 44h1v1h-1zM38 45h1v1h-1zM65 45h2v1h-2zM25 46h1v1h-1zM22 48h1v1h-1zM61 48h2v1h-2zM24 49h1v1h-1zM46 49h2v1h-2zM59 49h2v1h-2zM20 50h1v1h-1zM44 50h3v1h-3zM60 50h1v1h-1zM20 51h1v1h-1zM26 52h2v1h-2zM57 52h1v1h-1zM26 53h3v1h-3zM20 54h1v1h-1zM25 54h3v1h-3zM21 55h1v1h-1zM30 55h1v1h-1zM21 56h1v1h-1zM27 56h3v1h-3zM48 56h1v1h-1zM50 56h1v1h-1zM21 57h2v1h-2zM27 57h1v1h-1zM42 59h1v1h-1zM22 60h1v1h-1zM47 60h1v1h-1zM25 61h1v1h-1zM55 61h1v1h-1zM25 62h1v1h-1zM25 63h1v1h-1zM51 63h1v1h-1zM49 64h1v1h-1zM42 65h1v1h-1z"/><path fill="#3d1914" d="M37 12h2v1h-2zM40 12h3v1h-3zM31 13h1v1h-1zM37 13h1v1h-1zM28 14h1v1h-1zM30 14h1v1h-1zM44 14h5v1h-5zM27 15h1v1h-1zM44 15h2v1h-2zM46 16h1v1h-1zM51 16h1v1h-1zM46 17h1v1h-1zM53 17h1v1h-1zM40 20h1v1h-1zM50 21h1v1h-1zM56 21h1v1h-1zM40 22h2v1h-2zM54 22h1v1h-1zM56 22h1v1h-1zM58 22h1v1h-1zM32 23h1v1h-1zM47 23h1v1h-1zM27 24h1v1h-1zM48 24h1v1h-1zM58 24h1v1h-1zM27 25h1v1h-1zM58 25h1v1h-1zM28 26h1v1h-1zM32 26h1v1h-1zM60 26h1v1h-1zM24 27h1v1h-1zM29 27h1v1h-1zM32 27h1v1h-1zM50 27h1v1h-1zM59 27h2v1h-2zM50 28h1v1h-1zM66 28h1v1h-1zM65 29h1v1h-1zM22 30h1v1h-1zM51 30h2v1h-2zM62 30h1v1h-1zM67 30h1v1h-1zM22 31h1v1h-1zM51 31h1v1h-1zM62 31h1v1h-1zM67 31h1v1h-1zM22 32h1v1h-1zM51 32h1v1h-1zM21 33h1v1h-1zM51 33h1v1h-1zM53 33h1v1h-1zM55 33h1v1h-1zM62 33h1v1h-1zM53 34h1v1h-1zM18 35h1v1h-1zM53 35h1v1h-1zM56 35h1v1h-1zM18 36h1v1h-1zM22 36h1v1h-1zM27 37h1v1h-1zM20 38h1v1h-1zM26 38h2v1h-2zM18 39h2v1h-2zM25 39h2v1h-2zM56 39h1v1h-1zM25 40h4v1h-4zM52 40h1v1h-1zM25 41h4v1h-4zM25 42h2v1h-2zM36 43h2v1h-2zM16 45h2v1h-2zM25 45h1v1h-1zM16 46h1v1h-1zM16 47h1v1h-1zM20 47h1v1h-1zM22 47h1v1h-1zM46 47h3v1h-3zM16 48h1v1h-1zM20 48h1v1h-1zM46 48h3v1h-3zM18 49h1v1h-1zM20 49h1v1h-1zM45 49h1v1h-1zM62 49h1v1h-1zM25 50h1v1h-1zM62 50h1v1h-1zM18 51h1v1h-1zM27 51h1v1h-1zM32 51h1v1h-1zM20 52h1v1h-1zM20 53h2v1h-2zM33 53h1v1h-1zM55 53h3v1h-3zM28 54h1v1h-1zM33 54h1v1h-1zM55 54h4v1h-4zM27 55h3v1h-3zM51 55h1v1h-1zM54 55h5v1h-5zM22 58h1v1h-1zM54 58h1v1h-1zM43 63h1v1h-1zM40 64h1v1h-1zM43 64h3v1h-3zM48 64h1v1h-1z"/><path fill="#401d16" d="M39 12h1v1h-1zM43 12h1v1h-1zM45 12h1v1h-1zM38 13h1v1h-1zM40 13h3v1h-3zM45 13h1v1h-1zM43 14h1v1h-1zM40 15h1v1h-1zM42 15h2v1h-2zM53 18h1v1h-1zM53 19h1v1h-1zM56 20h1v1h-1zM39 22h1v1h-1zM57 22h1v1h-1zM38 23h1v1h-1zM38 24h1v1h-1zM49 24h1v1h-1zM57 24h1v1h-1zM32 25h1v1h-1zM35 25h2v1h-2zM33 26h1v1h-1zM50 26h1v1h-1zM15 27h1v1h-1zM44 27h1v1h-1zM23 28h1v1h-1zM59 28h2v1h-2zM28 29h1v1h-1zM50 29h1v1h-1zM57 29h1v1h-1zM23 30h1v1h-1zM53 30h2v1h-2zM23 31h2v1h-2zM52 31h3v1h-3zM52 32h4v1h-4zM62 32h1v1h-1zM52 33h1v1h-1zM54 33h1v1h-1zM19 34h4v1h-4zM54 34h2v1h-2zM22 35h2v1h-2zM54 35h2v1h-2zM53 36h1v1h-1zM56 36h1v1h-1zM28 37h3v1h-3zM56 37h1v1h-1zM18 38h1v1h-1zM28 38h1v1h-1zM39 38h1v1h-1zM56 38h1v1h-1zM27 39h2v1h-2zM39 39h1v1h-1zM20 40h1v1h-1zM52 41h1v1h-1zM49 47h1v1h-1zM61 47h1v1h-1zM17 48h1v1h-1zM49 48h1v1h-1zM18 50h1v1h-1zM58 53h1v1h-1zM60 53h1v1h-1zM60 54h1v1h-1zM52 55h2v1h-2zM51 56h1v1h-1zM54 56h5v1h-5zM23 57h1v1h-1zM51 57h1v1h-1zM54 57h1v1h-1zM52 58h2v1h-2zM33 60h1v1h-1zM35 62h1v1h-1zM43 62h1v1h-1zM45 63h1v1h-1zM50 63h1v1h-1zM46 64h2v1h-2zM40 65h2v1h-2z"/><path fill="#3d1914" d="M44 12h1v1h-1zM39 13h1v1h-1zM43 13h2v1h-2zM40 14h3v1h-3zM41 15h1v1h-1zM50 17h1v1h-1zM55 18h1v1h-1zM55 19h1v1h-1zM55 20h1v1h-1zM39 21h1v1h-1zM55 21h1v1h-1zM38 22h1v1h-1zM55 22h1v1h-1zM42 23h3v1h-3zM55 23h1v1h-1zM57 23h1v1h-1zM43 24h1v1h-1zM48 25h1v1h-1zM57 25h1v1h-1zM27 26h1v1h-1zM56 26h1v1h-1zM28 27h1v1h-1zM45 27h1v1h-1zM28 28h1v1h-1zM23 29h1v1h-1zM58 29h3v1h-3zM24 30h1v1h-1zM59 30h2v1h-2zM25 31h1v1h-1zM59 31h2v1h-2zM59 32h1v1h-1zM22 33h1v1h-1zM60 33h1v1h-1zM23 34h1v1h-1zM21 35h1v1h-1zM21 36h1v1h-1zM27 36h1v1h-1zM19 38h1v1h-1zM20 41h1v1h-1zM20 43h1v1h-1zM28 44h1v1h-1zM26 45h1v1h-1zM17 46h1v1h-1zM26 46h1v1h-1zM17 47h3v1h-3zM25 47h2v1h-2zM18 48h1v1h-1zM24 48h3v1h-3zM25 49h2v1h-2zM19 51h1v1h-1zM61 52h1v1h-1zM32 53h1v1h-1zM59 53h1v1h-1zM31 54h2v1h-2zM59 54h1v1h-1zM53 56h1v1h-1zM23 58h1v1h-1zM39 58h1v1h-1zM46 63h4v1h-4z"/><path fill="#391612" d="M30 13h1v1h-1zM29 14h1v1h-1zM28 15h2v1h-2zM46 15h4v1h-4zM47 16h4v1h-4zM52 16h1v1h-1zM47 17h1v1h-1zM50 20h1v1h-1zM46 23h1v1h-1zM56 23h1v1h-1zM58 23h1v1h-1zM49 25h1v1h-1zM31 26h1v1h-1zM57 28h2v1h-2zM65 28h1v1h-1zM66 29h1v1h-1zM66 30h1v1h-1zM66 31h1v1h-1zM66 32h2v1h-2zM66 33h1v1h-1zM65 34h2v1h-2zM11 40h2v1h-2zM20 42h1v1h-1zM67 43h1v1h-1zM63 46h2v1h-2zM62 47h1v1h-1zM44 49h1v1h-1zM61 49h1v1h-1zM61 50h1v1h-1zM28 51h1v1h-1zM31 51h1v1h-1zM61 51h2v1h-2zM28 52h1v1h-1zM31 52h2v1h-2zM30 53h1v1h-1zM21 54h1v1h-1zM40 63h3v1h-3zM44 63h1v1h-1zM41 64h2v1h-2z"/><path fill="#391612" d="M47 13h1v1h-1zM24 16h1v1h-1zM25 17h1v1h-1zM56 18h1v1h-1zM41 21h1v1h-1zM28 24h1v1h-1zM54 24h1v1h-1zM54 25h1v1h-1zM64 26h2v1h-2zM64 27h2v1h-2zM29 28h1v1h-1zM65 30h1v1h-1zM20 33h1v1h-1zM31 33h1v1h-1zM66 36h1v1h-1zM67 42h1v1h-1zM26 44h2v1h-2zM39 45h1v1h-1zM63 45h2v1h-2zM38 46h2v1h-2zM49 46h1v1h-1zM65 47h1v1h-1zM63 49h1v1h-1zM59 50h1v1h-1zM25 53h1v1h-1zM35 55h1v1h-1zM35 56h1v1h-1zM28 57h1v1h-1zM24 58h1v1h-1zM22 59h1v1h-1zM46 60h1v1h-1zM48 60h3v1h-3zM26 61h1v1h-1zM56 61h2v1h-2zM26 62h1v1h-1zM26 63h1v1h-1zM31 66h1v1h-1z"/><path fill="#391612" d="M26 16h1v1h-1zM54 16h1v1h-1zM26 17h1v1h-1zM20 21h1v1h-1zM34 21h1v1h-1zM54 23h1v1h-1zM52 26h1v1h-1zM23 27h1v1h-1zM52 27h1v1h-1zM52 28h1v1h-1zM29 29h1v1h-1zM52 29h1v1h-1zM31 32h2v1h-2zM56 32h1v1h-1zM32 35h1v1h-1zM52 35h1v1h-1zM67 35h1v1h-1zM52 36h1v1h-1zM65 36h1v1h-1zM16 38h1v1h-1zM55 40h1v1h-1zM64 42h1v1h-1zM53 45h1v1h-1zM50 46h5v1h-5zM50 48h1v1h-1zM47 50h1v1h-1zM58 52h1v1h-1zM54 53h1v1h-1zM41 57h1v1h-1zM41 58h1v1h-1zM33 61h1v1h-1zM50 64h1v1h-1zM47 65h1v1h-1zM42 66h1v1h-1z"/><path fill="#472118" d="M51 17h2v1h-2zM21 19h1v1h-1zM39 24h1v1h-1zM56 24h1v1h-1zM29 26h1v1h-1zM57 26h2v1h-2zM49 27h1v1h-1zM49 28h1v1h-1zM49 29h1v1h-1zM67 37h1v1h-1zM19 40h1v1h-1zM18 41h1v1h-1zM53 41h1v1h-1zM18 42h2v1h-2zM53 43h1v1h-1zM65 43h1v1h-1zM18 44h1v1h-1zM41 48h1v1h-1zM34 55h1v1h-1zM37 59h1v1h-1zM37 60h1v1h-1zM41 60h1v1h-1zM37 61h1v1h-1zM50 61h1v1h-1z"/><path fill="#532f20" d="M50 18h1v1h-1zM27 34h1v1h-1zM27 35h1v1h-1zM29 35h1v1h-1zM68 36h1v1h-1zM68 37h1v1h-1zM51 42h1v1h-1zM19 45h1v1h-1zM19 46h1v1h-1zM33 56h1v1h-1zM39 60h1v1h-1zM51 61h3v1h-3zM42 62h1v1h-1z"/><path fill="#401d16" d="M54 18h1v1h-1zM54 19h1v1h-1zM39 20h1v1h-1zM35 21h1v1h-1zM38 21h1v1h-1zM37 22h1v1h-1zM42 22h4v1h-4zM36 23h2v1h-2zM45 23h1v1h-1zM32 24h3v1h-3zM36 24h2v1h-2zM44 24h1v1h-1zM33 25h2v1h-2zM43 25h1v1h-1zM15 26h1v1h-1zM25 26h2v1h-2zM34 26h1v1h-1zM25 27h3v1h-3zM46 27h1v1h-1zM24 28h4v1h-4zM24 29h3v1h-3zM25 30h1v1h-1zM61 30h1v1h-1zM61 31h1v1h-1zM23 32h1v1h-1zM60 32h2v1h-2zM59 33h1v1h-1zM30 34h1v1h-1zM19 35h2v1h-2zM19 36h2v1h-2zM30 36h1v1h-1zM54 36h2v1h-2zM19 37h3v1h-3zM53 37h3v1h-3zM53 38h3v1h-3zM53 39h3v1h-3zM18 40h1v1h-1zM54 43h1v1h-1zM66 44h1v1h-1zM27 47h1v1h-1zM19 48h1v1h-1zM23 48h1v1h-1zM27 48h1v1h-1zM19 49h1v1h-1zM27 49h1v1h-1zM19 50h1v1h-1zM26 50h2v1h-2zM19 52h1v1h-1zM52 56h1v1h-1zM34 57h1v1h-1zM39 57h1v1h-1zM52 57h2v1h-2zM32 58h2v1h-2zM33 59h1v1h-1zM40 59h2v1h-2zM43 61h2v1h-2zM44 62h1v1h-1z"/><path fill="#401d16" d="M20 19h1v1h-1zM36 20h3v1h-3zM51 20h4v1h-4zM36 21h2v1h-2zM52 21h2v1h-2zM39 23h1v1h-1zM31 24h1v1h-1zM45 24h3v1h-3zM31 25h1v1h-1zM45 25h3v1h-3zM55 25h1v1h-1zM45 26h3v1h-3zM47 27h1v1h-1zM58 27h1v1h-1zM29 36h1v1h-1zM54 41h1v1h-1zM53 42h1v1h-1zM66 42h1v1h-1zM18 43h2v1h-2zM20 44h1v1h-1zM53 44h1v1h-1zM28 47h2v1h-2zM28 48h3v1h-3zM28 49h2v1h-2zM28 50h3v1h-3zM31 57h1v1h-1zM33 57h1v1h-1zM35 57h3v1h-3zM35 58h4v1h-4zM24 59h1v1h-1zM34 59h3v1h-3zM24 60h1v1h-1zM35 60h2v1h-2zM42 60h1v1h-1zM35 61h2v1h-2zM45 61h5v1h-5zM54 61h1v1h-1zM36 62h2v1h-2zM47 62h4v1h-4zM54 62h1v1h-1z"/><path fill="#532f20" d="M50 19h1v1h-1zM41 25h1v1h-1zM24 33h1v1h-1zM40 38h1v1h-1zM41 39h1v1h-1zM18 45h1v1h-1zM33 55h1v1h-1z"/><path fill="#7c2f33" d="M52 19h1v1h-1zM41 24h1v1h-1zM28 45h1v1h-1zM63 47h2v1h-2zM63 48h2v1h-2zM32 55h1v1h-1zM32 56h1v1h-1zM48 58h2v1h-2zM38 61h2v1h-2zM42 61h1v1h-1zM40 62h1v1h-1z"/><path fill="#472118" d="M19 20h1v1h-1zM35 20h1v1h-1zM19 21h1v1h-1zM51 21h1v1h-1zM54 21h1v1h-1zM33 22h4v1h-4zM33 23h3v1h-3zM35 24h1v1h-1zM44 25h1v1h-1zM44 26h1v1h-1zM27 29h1v1h-1zM26 30h1v1h-1zM26 31h1v1h-1zM61 33h1v1h-1zM30 35h1v1h-1zM54 44h1v1h-1zM65 44h1v1h-1zM23 47h2v1h-2zM30 49h1v1h-1zM31 53h1v1h-1zM34 58h1v1h-1zM34 60h1v1h-1zM45 62h2v1h-2z"/><path fill="#3d1914" d="M41 20h1v1h-1zM37 25h3v1h-3zM24 26h1v1h-1zM51 26h1v1h-1zM33 27h2v1h-2zM64 29h1v1h-1zM21 30h1v1h-1zM18 34h1v1h-1zM56 34h1v1h-1zM22 37h1v1h-1zM25 38h1v1h-1zM20 39h1v1h-1zM28 42h1v1h-1zM28 43h1v1h-1zM43 49h1v1h-1zM43 50h1v1h-1zM26 51h1v1h-1zM57 51h1v1h-1zM18 52h1v1h-1zM62 52h1v1h-1zM29 54h2v1h-2zM50 55h1v1h-1zM31 58h1v1h-1zM51 58h1v1h-1zM40 66h2v1h-2z"/><path fill="#532f20" d="M40 23h2v1h-2zM40 25h1v1h-1zM40 39h1v1h-1zM19 41h1v1h-1zM52 42h1v1h-1zM18 46h1v1h-1zM40 47h1v1h-1zM14 51h1v1h-1zM34 56h1v1h-1zM50 57h1v1h-1zM39 59h1v1h-1zM38 62h2v1h-2zM51 62h1v1h-1z"/><path fill="#391612" d="M42 24h1v1h-1zM56 25h1v1h-1zM23 59h1v1h-1zM23 60h1v1h-1z"/><path fill="#7e4626" d="M55 24h1v1h-1zM27 45h1v1h-1zM27 46h1v1h-1z"/><path fill="#472118" d="M30 26h1v1h-1zM29 34h1v1h-1zM28 36h1v1h-1zM19 44h1v1h-1zM32 57h1v1h-1zM50 58h1v1h-1zM40 60h1v1h-1zM52 62h2v1h-2z"/><path fill="#511e20" d="M48 26h2v1h-2zM48 27h1v1h-1zM57 27h1v1h-1zM48 28h1v1h-1zM48 29h1v1h-1zM67 36h1v1h-1zM66 43h1v1h-1zM20 45h1v1h-1zM20 46h1v1h-1zM41 47h2v1h-2zM40 48h1v1h-1zM42 48h1v1h-1zM59 51h2v1h-2zM59 52h2v1h-2z"/><path fill="#532f20" d="M24 32h1v1h-1z"/><path fill="#7c2f33" d="M23 33h1v1h-1zM28 46h1v1h-1z"/><path fill="#a6794e" d="M28 34h1v1h-1zM29 51h2v1h-2z"/><path fill="#564133" d="M41 38h1v1h-1z"/><path fill="#472118" d="M53 40h1v1h-1zM14 52h1v1h-1z"/><path fill="#472118" d="M54 40h1v1h-1zM54 42h1v1h-1zM65 42h1v1h-1zM30 47h1v1h-1zM38 57h1v1h-1z"/><path fill="#532f20" d="M31 55h1v1h-1zM31 56h1v1h-1z"/><path fill="#391612" d="M30 66h1v1h-1z"/></svg>
